# This file uses centimeters as units for non-parametric coordinates.

mtllib wall-2 DI.mtl
g default
v 99.989765 -0.000004 99.999516
v -52.007448 61.747080 99.999509
v 29.978664 -0.000001 99.999513
v -55.743509 236.843508 99.999509
v -71.912194 256.076572 99.999509
v -99.989403 279.999943 99.999507
v 99.989743 -0.000004 -99.999751
v -54.443330 66.649561 99.999509
v -76.090477 279.999942 99.999508
v -71.912193 275.816623 99.999509
v -54.440393 233.561999 99.999509
v -54.440400 69.994914 99.999509
v -54.440393 230.201281 99.999509
v -76.090491 279.999942 -99.999576
v -99.989371 279.999943 -99.999562
v 29.978642 0.000014 -99.999564
v -52.007470 61.747095 -99.999575
v -54.440422 70.008914 -99.999575
v -54.443352 66.649584 -99.999575
v -54.440415 230.201296 -99.999568
v -54.440415 233.562014 -99.999568
v -55.743527 236.843524 -99.999568
v -71.912185 256.090518 -99.999576
v -71.912185 275.816592 -99.999576
vt 0.476482 0.493791
vt 0.476482 0.310104
vt 0.498314 0.310102
vt 0.498353 0.493791
vt 0.471082 0.310104
vt 0.471064 0.493790
vt 0.426574 0.310105
vt 0.426557 0.493791
vt 0.423538 0.493791
vt 0.423554 0.310105
vt 0.452895 0.310104
vt 0.452878 0.493790
vt 0.430016 0.493790
vt 0.430034 0.310104
vt 0.273258 0.493800
vt 0.268213 0.493800
vt 0.268229 0.310114
vt 0.273274 0.310113
vt 0.276277 0.493799
vt 0.276293 0.310113
vt 0.173940 0.493800
vt 0.173940 0.310115
vt 0.109619 0.493796
vt 0.109618 0.310108
vn 0.769197 0.639012 -0.000000
vn 0.601604 0.798794 -0.000000
vn 0.601604 0.798794 -0.000000
vn 0.769197 0.639012 -0.000000
vn 0.982192 0.187882 -0.000000
vn 1.000000 -0.000000 -0.000000
vn 1.000000 -0.000000 -0.000000
vn 0.982192 0.187882 -0.000000
vn 0.765470 0.643472 0.000004
vn 0.858463 0.512876 -0.000000
vn 0.858547 0.512735 0.000021
vn 0.765682 0.643220 0.000045
vn 1.000000 -0.000000 0.000000
vn 1.000000 -0.000000 0.000000
vn 1.000000 -0.000000 0.000000
vn 1.000000 -0.000000 0.000000
vn 0.000000 1.000000 0.000000
vn 0.000000 1.000000 0.000000
vn 0.000000 1.000000 0.000000
vn 0.000000 1.000000 0.000000
vn 0.000000 1.000000 0.000000
vn 0.000000 1.000000 0.000000
vn 0.000000 1.000000 0.000000
vn 0.000000 1.000000 -0.000000
vn 0.973636 0.228105 -0.000000
vn 0.769197 0.639012 -0.000000
vn 0.769197 0.639012 -0.000000
vn 0.973636 0.228107 -0.000000
vn 0.707533 0.706680 -0.000000
vn 0.707533 0.706680 -0.000000
vn 0.707533 0.706681 -0.000000
vn 0.707533 0.706681 -0.000000
vn 0.858463 0.512876 -0.000000
vn 0.982192 0.187882 -0.000000
vn 0.982192 0.187882 -0.000000
vn 0.858547 0.512735 0.000021
vn 0.973636 0.228105 -0.000000
vn 0.973636 0.228107 -0.000000
vn 1.000000 -0.000436 -0.000000
vn 1.000000 -0.000438 -0.000000
vn 1.000000 -0.000000 -0.000000
vn 1.000000 -0.000438 -0.000000
vn 1.000000 -0.000436 -0.000000
vn 1.000000 -0.000000 -0.000000
s off
g A_Wall_Simple_2x2
usemtl A_Wall_Simple_2x2SG
f 2/16/1 3/21/2 16/22/3 17/17/4
f 11/8/5 13/9/6 20/10/7 21/7/8
f 5/12/9 4/13/10 22/14/11 23/11/12
f 24/5/13 10/6/14 5/12/15 23/11/16
f 9/1/17 14/2/18 15/3/19 6/4/20
f 16/22/21 3/21/22 1/23/23 7/24/24
f 8/15/25 2/16/26 17/17/27 19/18/28
f 24/5/29 14/2/30 9/1/31 10/6/32
f 4/13/33 11/8/34 21/7/35 22/14/36
f 8/15/37 19/18/38 18/20/39 12/19/40
f 13/9/41 12/19/42 18/20/43 20/10/44
