# This file uses centimeters as units for non-parametric coordinates.

mtllib Light.mtl
g default
v -11.723300 1.635172 2.889327
v -10.485193 1.635172 4.127434
v 11.723300 1.635172 2.889327
v 10.485193 1.635172 4.127434
v -11.723300 1.635172 -2.889327
v -10.485193 1.635172 -4.127434
v 10.485193 1.635172 -4.127434
v 11.723300 1.635172 -2.889327
v -10.385983 0.437456 3.887916
v -10.485193 0.676976 4.127434
v 10.385983 0.437456 3.887916
v 10.485193 0.676976 4.127434
v -11.483781 0.437456 2.790115
v -11.723300 0.676976 2.889327
v 11.483781 0.437456 2.790115
v 11.723300 0.676976 2.889327
v -11.483781 0.437456 -2.790115
v -11.723300 0.676976 -2.889327
v -10.385983 0.437456 -3.887916
v -10.485193 0.676976 -4.127434
v 10.385983 0.437456 -3.887916
v 10.485193 0.676976 -4.127434
v 11.483781 0.437456 -2.790115
v 11.723300 0.676976 -2.889327
v -10.039783 0.540876 -3.758318
v 10.039783 0.540876 -3.758318
v 10.039783 0.540876 3.758318
v -10.039783 0.540876 3.758318
v -9.564141 0.026614 -3.194571
v 9.564141 0.026614 -3.194571
v 9.564141 0.026614 3.194571
v -9.564141 0.026614 3.194571
v -1.048520 1.635172 4.127434
v -1.048519 0.676976 4.127434
v -1.038599 0.437456 3.887917
v -1.003978 0.540876 3.758318
v -0.956414 0.026614 3.194571
v -0.956414 0.026614 -3.194571
v -1.003978 0.540876 -3.758317
v -1.038598 0.437457 -3.887916
v -1.048520 0.676976 -4.127434
v -1.048520 1.635172 -4.127434
v 1.048519 1.635172 -4.127434
v 1.048519 0.676976 -4.127434
v 1.038599 0.437456 -3.887917
v 1.003978 0.540876 -3.758318
v 0.956414 0.026614 -3.194571
v 0.956414 0.026614 3.194571
v 1.003978 0.540876 3.758317
v 1.038598 0.437457 3.887916
v 1.048520 0.676976 4.127434
v 1.048519 1.635172 4.127434
v 0.956414 -0.125069 -3.241855
v -0.956414 -0.125069 -3.241855
v 0.956414 -0.125069 3.241855
v -0.956414 -0.125069 3.241855
v -9.838120 -0.268151 -3.265057
v -10.699683 -0.272378 -2.335463
v -9.838120 -0.268151 3.265057
v -10.699683 -0.272378 2.335463
v 10.699683 -0.272378 -2.335463
v 9.838120 -0.268151 -3.265057
v 10.699683 -0.272378 2.335463
v 9.838120 -0.268151 3.265057
vt 0.407994 0.539823
vt 0.655822 0.932441
vt 0.478112 0.604572
vt 0.461691 0.609390
vt 0.688951 0.931889
vt 0.526414 0.598451
vt 0.482794 0.883578
vt 0.466089 0.879258
vt 0.412182 0.632592
vt 0.371199 0.586898
vt 0.531735 0.888193
vt 0.432613 0.968761
vt 0.620028 0.929124
vt 0.415604 0.857511
vt 0.498886 0.991927
vt 0.375796 0.904378
vt 0.232926 0.962087
vt 0.629204 0.285702
vt 0.268835 0.871730
vt 0.284040 0.875738
vt 0.185111 0.895250
vt 0.222938 0.851627
vt 0.272243 0.624021
vt 0.287556 0.620913
vt 0.328938 0.879594
vt 0.289434 0.986588
vt 0.225342 0.642720
vt 0.227023 0.548993
vt 0.596812 0.286470
vt 0.332054 0.620131
vt 0.188125 0.597956
vt 0.564094 0.284711
vt 0.953483 0.167264
vt 0.934031 0.351179
vt 0.923588 0.386208
vt 0.928005 0.203538
vt 0.930276 0.802054
vt 0.913361 0.760002
vt 0.969270 0.976087
vt 0.938951 0.942483
vt 0.736269 0.353060
vt 0.696983 0.180732
vt 0.726999 0.214020
vt 0.753128 0.394689
vt 0.732483 0.804189
vt 0.742939 0.769618
vt 0.712592 0.986330
vt 0.737776 0.950465
vt 0.356529 0.903618
vt 0.351975 0.588188
vt 0.381945 0.539605
vt 0.387393 0.951405
vt 0.413421 0.950669
vt 0.169837 0.598846
vt 0.200354 0.553439
vt 0.167289 0.894550
vt 0.197904 0.933085
vt 0.219297 0.937260
vt 0.018215 0.165932
vt 0.018217 0.024976
vt 0.208135 0.024951
vt 0.208122 0.165923
vt 0.423755 0.023360
vt 0.424397 0.167130
vt 0.230888 0.167498
vt 0.230389 0.024120
vt 0.645671 0.573928
vt 0.647541 0.641117
vt 0.639156 0.641139
vt 0.678831 0.573106
vt 0.680691 0.640127
vt 0.608312 0.568859
vt 0.616559 0.567465
vt 0.608493 0.635605
vt 0.575638 0.634281
vt 0.575392 0.567736
vt 0.635492 0.640215
vt 0.647385 0.929454
vt 0.643454 0.918865
vt 0.209745 0.182996
vt 0.004870 0.183007
vt 0.004869 0.007904
vt 0.209756 0.007874
vt 0.617141 0.634043
vt 0.621480 0.632406
vt 0.624168 0.917546
vt 0.619471 0.567013
vt 0.607958 0.296872
vt 0.422704 0.184324
vt 0.219761 0.184647
vt 0.219689 0.007018
vt 0.422947 0.006195
vt 0.637304 0.574415
vt 0.633694 0.575570
vt 0.625869 0.296536
vt 0.610929 0.933444
vt 0.577740 0.932320
vt 0.490937 0.497311
vt 0.426697 0.521607
vt 0.308316 0.508857
vt 0.247869 0.524423
vt 0.604570 0.287856
vt 0.637491 0.282203
vt 0.670643 0.280943
vn -0.500001 -0.707105 0.500001
vn -0.500001 -0.707105 0.500001
vn -0.500001 -0.707105 0.500001
vn -0.500001 -0.707105 0.500001
vn 0.000000 -0.707105 0.707109
vn 0.000000 -0.707105 0.707109
vn 0.000000 -0.707104 0.707109
vn 0.000000 -0.707104 0.707109
vn 0.500001 -0.707106 0.500000
vn 0.500001 -0.707106 0.500000
vn 0.500001 -0.707106 0.500000
vn 0.500001 -0.707106 0.500000
vn -0.707104 -0.707109 0.000000
vn -0.707104 -0.707109 0.000000
vn -0.707104 -0.707109 0.000000
vn -0.707104 -0.707109 0.000000
vn 0.707104 -0.707109 0.000000
vn 0.707104 -0.707109 0.000000
vn 0.707104 -0.707109 0.000000
vn 0.707104 -0.707109 0.000000
vn -0.500001 -0.707106 -0.500000
vn -0.500001 -0.707106 -0.500000
vn -0.500001 -0.707106 -0.500000
vn -0.500001 -0.707106 -0.500000
vn 0.000000 -0.707104 -0.707109
vn 0.000000 -0.707104 -0.707109
vn 0.000000 -0.707105 -0.707109
vn 0.000000 -0.707105 -0.707109
vn 0.500001 -0.707105 -0.500001
vn 0.500001 -0.707105 -0.500001
vn 0.500001 -0.707105 -0.500001
vn 0.500001 -0.707105 -0.500001
vn 0.000000 0.000000 1.000000
vn 0.000000 0.000000 1.000000
vn 0.000000 0.000000 1.000000
vn 0.000000 0.000000 1.000000
vn 0.000000 0.000000 -1.000000
vn 0.000000 0.000000 -1.000000
vn 0.000000 0.000000 -1.000000
vn 0.000000 0.000000 -1.000000
vn 1.000000 0.000000 0.000000
vn 1.000000 0.000000 0.000000
vn 1.000000 0.000000 0.000000
vn 1.000000 0.000000 0.000000
vn -1.000000 0.000000 0.000000
vn -1.000000 0.000000 0.000000
vn -1.000000 0.000000 0.000000
vn -1.000000 0.000000 0.000000
vn 0.004906 -0.999988 0.000000
vn 0.004906 -0.999988 0.000000
vn 0.004906 -0.999988 0.000000
vn 0.004906 -0.999988 0.000000
vn -0.707107 0.000000 0.707107
vn -0.707107 0.000000 0.707107
vn -0.707107 0.000000 0.707107
vn -0.707107 0.000000 0.707107
vn 0.707107 0.000000 0.707107
vn 0.707107 0.000000 0.707107
vn 0.707107 0.000000 0.707107
vn 0.707107 0.000000 0.707107
vn -0.707107 0.000000 -0.707107
vn -0.707107 0.000000 -0.707107
vn -0.707107 0.000000 -0.707107
vn -0.707107 0.000000 -0.707107
vn 0.707107 0.000000 -0.707107
vn 0.707107 0.000000 -0.707107
vn 0.707107 0.000000 -0.707107
vn 0.707107 0.000000 -0.707107
vn -0.458293 -0.769656 -0.444519
vn -0.458293 -0.769656 -0.444519
vn -0.458293 -0.769656 -0.444519
vn -0.458293 -0.769656 -0.444519
vn -0.000000 -0.754182 -0.656666
vn -0.000000 -0.754182 -0.656666
vn -0.000000 -0.754182 -0.656666
vn -0.000000 -0.754182 -0.656666
vn 0.458293 -0.769656 -0.444519
vn 0.458293 -0.769656 -0.444519
vn 0.458293 -0.769656 -0.444519
vn 0.458293 -0.769656 -0.444519
vn 0.671128 -0.741342 0.000000
vn 0.671128 -0.741342 0.000000
vn 0.671128 -0.741342 0.000000
vn 0.671128 -0.741342 0.000000
vn 0.458293 -0.769656 0.444519
vn 0.458293 -0.769656 0.444519
vn 0.458293 -0.769656 0.444519
vn 0.458293 -0.769656 0.444519
vn 0.000000 -0.754182 0.656666
vn 0.000000 -0.754182 0.656666
vn 0.000000 -0.754182 0.656666
vn 0.000000 -0.754182 0.656666
vn -0.458293 -0.769656 0.444519
vn -0.458293 -0.769656 0.444519
vn -0.458293 -0.769656 0.444519
vn -0.458293 -0.769656 0.444519
vn -0.671128 -0.741342 0.000000
vn -0.671128 -0.741342 0.000000
vn -0.671128 -0.741342 0.000000
vn -0.671128 -0.741342 0.000000
vn 0.000000 -1.000000 0.000000
vn 0.000000 -1.000000 0.000000
vn 0.000000 -1.000000 0.000000
vn 0.000000 -1.000000 0.000000
vn -0.004906 -0.999988 0.000000
vn -0.004906 -0.999988 0.000000
vn -0.004906 -0.999988 0.000000
vn -0.004906 -0.999988 0.000000
vn 0.000000 0.000000 1.000000
vn 0.000000 0.000000 1.000000
vn 0.000000 -0.707104 0.707109
vn 0.000000 -0.707104 0.707109
vn 0.000000 -0.781633 -0.623739
vn 0.000000 -0.781633 -0.623739
vn 0.000000 -0.781633 -0.623739
vn 0.000000 -0.781633 -0.623739
vn 0.000000 -0.738788 0.673938
vn 0.000000 -0.738788 0.673938
vn 0.000000 -0.738788 0.673938
vn 0.000000 -0.738788 0.673938
vn 0.000000 -1.000000 0.000000
vn 0.000000 -1.000000 0.000000
vn 0.000000 -1.000000 0.000000
vn 0.000000 -1.000000 0.000000
vn 0.000000 -0.738788 -0.673938
vn 0.000000 -0.738788 -0.673938
vn 0.000000 -0.738788 -0.673938
vn 0.000000 -0.738788 -0.673938
vn -0.000000 -0.781632 0.623740
vn -0.062989 -0.774792 0.629070
vn -0.103042 -0.768792 0.631143
vn -0.000000 -0.781632 0.623740
vn 0.000000 -0.707105 -0.707109
vn 0.000000 -0.707105 -0.707109
vn 0.000000 0.000000 -1.000000
vn 0.000000 0.000000 -1.000000
vn 0.000000 0.000000 -1.000000
vn 0.000000 0.000000 -1.000000
vn 0.000000 -0.707104 -0.707109
vn 0.000000 -0.707104 -0.707109
vn 0.103042 -0.768792 0.631142
vn 0.062989 -0.774792 0.629070
vn 0.000000 -0.781633 0.623739
vn 0.000000 -0.781633 0.623739
vn 0.000000 -0.738788 -0.673938
vn 0.000000 -0.738788 -0.673938
vn 0.000000 -0.738788 -0.673938
vn 0.000000 -0.738788 -0.673938
vn 0.000000 -1.000000 0.000000
vn 0.000000 -1.000000 0.000000
vn 0.000000 -1.000000 0.000000
vn 0.000000 -1.000000 0.000000
vn -0.000000 -0.738788 0.673938
vn -0.000000 -0.738788 0.673938
vn -0.000000 -0.738788 0.673938
vn -0.000000 -0.738788 0.673938
vn 0.000000 -0.781632 -0.623740
vn 0.000000 -0.781632 -0.623740
vn 0.000000 -0.781632 -0.623740
vn 0.000000 -0.781632 -0.623740
vn 0.000000 -0.707105 0.707109
vn 0.000000 -0.707105 0.707109
vn 0.000000 0.000000 1.000000
vn 0.000000 0.000000 1.000000
vn 0.999845 0.004569 0.016984
vn 0.999884 0.003964 0.014737
vn -0.999845 0.004569 0.016984
vn -0.999884 0.003964 0.014737
vn 0.999845 0.004569 -0.016984
vn 0.989506 0.037538 -0.139532
vn 0.989506 0.037538 -0.139532
vn 0.999884 0.003964 -0.014737
vn -0.989506 0.037538 -0.139532
vn -0.999845 0.004569 -0.016984
vn -0.999884 0.003964 -0.014737
vn -0.989506 0.037538 -0.139532
vn 0.732462 -0.680808 0.000000
vn 0.732462 -0.680808 0.000000
vn 0.732462 -0.680808 0.000000
vn 0.732462 -0.680808 0.000000
vn 0.488621 -0.362167 -0.793779
vn 0.488621 -0.362167 -0.793779
vn 0.488621 -0.362167 -0.793779
vn 0.488621 -0.362167 -0.793779
vn 0.488621 -0.362167 0.793779
vn 0.488621 -0.362167 0.793779
vn 0.488621 -0.362167 0.793779
vn 0.488621 -0.362167 0.793779
vn -0.488621 -0.362167 -0.793779
vn -0.488621 -0.362167 -0.793779
vn -0.488621 -0.362167 -0.793779
vn -0.488621 -0.362167 -0.793779
vn -0.488621 -0.362167 0.793779
vn -0.488621 -0.362167 0.793779
vn -0.488621 -0.362167 0.793779
vn -0.488621 -0.362167 0.793779
vn -0.732462 -0.680808 0.000000
vn -0.732462 -0.680808 0.000000
vn -0.732462 -0.680808 0.000000
vn -0.732462 -0.680808 0.000000
s off
g pCube1
usemtl lambert2SG
f 9/1/1 10/99/2 14/3/3 13/4/4
s 1
f 50/93/5 51/67/6 34/68/7 35/69/8
s off
f 12/17/9 11/58/10 15/19/11 16/20/12
f 13/4/13 14/3/14 18/7/15 17/8/16
f 16/20/17 15/19/18 23/23/19 24/24/20
f 17/8/21 18/7/22 20/12/23 19/53/24
s 2
f 44/72/25 45/73/26 40/84/27 41/74/28
s off
f 21/28/29 22/101/30 24/24/31 23/23/32
s 3
f 34/68/33 51/67/34 52/70/35 33/71/36
s 4
f 42/75/37 43/76/38 44/72/39 41/74/40
s off
f 3/25/41 16/20/42 24/24/43 8/30/44
f 5/11/45 18/7/46 14/3/47 1/6/48
f 58/14/49 57/16/50 59/10/51 60/9/52
f 14/3/53 10/99/54 2/98/55 1/6/56
f 12/17/57 16/20/58 3/25/59 4/26/60
f 5/11/61 6/15/62 20/12/63 18/7/64
f 7/100/65 8/30/66 24/24/67 22/101/68
f 17/8/69 19/53/70 57/16/71 58/14/72
f 40/43/73 45/36/74 53/35/75 54/44/76
f 21/28/77 23/23/78 61/27/79 62/31/80
f 23/23/81 15/19/82 63/22/83 61/27/84
f 15/19/85 11/58/86 64/21/87 63/22/88
f 55/38/89 50/40/90 35/48/91 56/46/92
f 9/1/93 13/4/94 60/9/95 59/10/96
f 13/4/97 17/8/98 58/14/99 60/9/100
f 54/44/101 53/35/102 55/38/103 56/46/104
f 64/21/105 62/31/106 61/27/107 63/22/108
s 3
f 2/5/109 10/2/110 34/68/33 33/71/36
s 1
f 10/2/111 9/78/112 35/69/8 34/68/7
s off
f 36/77/113 35/69/114 9/78/115 28/79/116
f 37/62/117 36/80/118 28/81/119 32/59/120
f 32/59/121 29/60/122 38/61/123 37/62/124
f 25/82/125 39/83/126 38/61/127 29/60/128
s 5
f 19/13/129 40/84/130 39/85/131 25/86/132
s 2
f 19/13/133 20/96/134 41/74/28 40/84/27
s 4
f 20/96/135 6/97/136 42/75/37 41/74/40
f 44/72/39 43/76/38 7/32/137 22/29/138
s 2
f 45/73/26 44/72/25 22/29/139 21/102/140
s 6
f 46/87/141 45/73/142 21/102/143 26/88/144
s off
f 47/64/145 46/89/146 26/90/147 30/65/148
f 48/63/149 47/64/150 30/65/151 31/66/152
f 27/91/153 49/92/154 48/63/155 31/66/156
f 11/18/157 50/93/158 49/94/159 27/95/160
s 1
f 51/67/6 50/93/5 11/18/161 12/103/162
s 3
f 52/70/35 51/67/34 12/103/163 4/104/164
s 6
f 46/33/141 47/34/165 53/35/166 45/36/142
s 5
f 38/41/167 39/42/131 40/43/130 54/44/168
s 6
f 48/37/169 49/39/170 50/40/171 55/38/172
s 5
f 36/47/173 37/45/174 56/46/175 35/48/176
s 6
f 47/34/165 48/37/169 55/38/172 53/35/166
s 5
f 37/45/174 38/41/167 54/44/168 56/46/175
s off
f 29/49/177 32/50/178 59/10/179 57/16/180
f 25/52/181 29/49/182 57/16/183 19/53/184
f 32/50/185 28/51/186 9/1/187 59/10/188
f 30/54/189 26/55/190 21/28/191 62/31/192
f 27/57/193 31/56/194 64/21/195 11/58/196
f 31/56/197 30/54/198 62/31/199 64/21/200
