# This file uses centimeters as units for non-parametric coordinates.

mtllib Advertisement.mtl
g default
v -20.945694 0.098895 -9.358362
v -19.468639 0.098895 -10.480444
v 19.411766 0.098895 -10.480444
v 20.945694 0.098895 -9.483031
v 20.945694 0.098895 9.649750
v 19.638096 0.098895 10.465252
v -19.513906 0.098895 10.465252
v -20.945694 0.098895 9.436667
vt 0.496214 0.043634
vt 0.496214 0.957703
vt 0.469834 0.992428
vt 0.027968 0.992428
vt 0.472765 0.007572
vt 0.003786 0.958767
vt 0.003786 0.038313
vt 0.022958 0.007572
vn 0.000000 1.000000 0.000000
vn 0.000000 1.000000 0.000000
vn 0.000000 1.000000 0.000000
vn 0.000000 1.000000 0.000000
vn 0.000000 1.000000 0.000000
vn 0.000000 1.000000 0.000000
vn 0.000000 1.000000 0.000000
vn 0.000000 1.000000 0.000000
s 1
g Screen
usemtl lambert2SG
f 3/1/1 2/2/2 1/3/3 8/4/4
f 4/5/5 3/1/1 8/4/4 7/6/6
f 7/6/6 6/7/7 5/8/8 4/5/5
g default
v -14.690781 -0.106339 -10.366293
v 14.690784 -0.106339 -10.366293
v -14.690781 0.243518 -10.366293
v 14.690784 0.243518 -10.366293
v -14.690781 -0.106339 -10.716148
v 14.690784 -0.106339 -10.716148
v -14.690781 -0.106339 10.335156
v 14.690784 -0.106339 10.335156
v -14.690781 0.243518 10.335156
v 14.690784 0.243518 10.335156
v -14.690781 -0.106339 10.685010
v 14.690784 -0.106339 10.685010
v -14.690781 0.103591 -10.716148
v -14.690781 0.243518 -10.576221
v 14.690784 0.103591 -10.716148
v 14.690784 0.243518 -10.576221
v -14.690781 0.103591 10.685010
v -14.690781 0.243518 10.545084
v 14.690784 0.103591 10.685010
v 14.690784 0.243518 10.545084
v -21.467581 -0.118268 -4.332421
v -20.269720 -0.118268 -5.108686
v -20.269720 -0.118268 -7.410716
v -17.987766 -0.118268 -9.732821
v -14.802402 -0.118268 -9.732821
v -13.678155 -0.118268 -10.890527
v -21.467581 0.236283 -4.332421
v -21.321510 0.382350 -4.601136
v -20.415791 0.382350 -5.188085
v -20.269720 0.236283 -5.108686
v -20.415791 0.382350 -7.470474
v -20.269720 0.236283 -7.410716
v -18.049015 0.382350 -9.878887
v -17.987766 0.236283 -9.732821
v -14.864162 0.382350 -9.878887
v -14.802402 0.236283 -9.732821
v -14.023607 0.382350 -10.744459
v -13.678155 0.236283 -10.890527
v -20.237362 0.232180 -10.809256
v -20.098289 0.382350 -10.750980
v -20.041153 0.232180 -10.890527
v -21.467581 0.232180 -9.464102
v -21.328030 0.382350 -9.521235
v -21.386311 0.232180 -9.660309
v -20.044292 -0.118268 -10.890527
v -20.235142 -0.118268 -10.811476
v -21.388527 -0.118268 -9.658089
v -21.467581 -0.118268 -9.467241
v 21.467581 0.236283 -4.332421
v 21.321510 0.382350 -4.601136
v 21.328030 0.382350 -9.521235
v 21.467581 0.232180 -9.464102
v 20.269720 0.236283 -5.108686
v 20.415791 0.382350 -5.188085
v 20.269720 0.236283 -7.410716
v 20.415791 0.382350 -7.470474
v 17.987766 0.236283 -9.732821
v 18.049015 0.382350 -9.878887
v 14.802402 0.236283 -9.732821
v 14.864162 0.382350 -9.878887
v 13.678155 0.236283 -10.890527
v 14.023607 0.382350 -10.744459
v 20.041153 0.232180 -10.890527
v 20.098289 0.382350 -10.750980
v 20.237362 0.232180 -10.809256
v 20.044292 -0.118268 -10.890527
v 20.235142 -0.118268 -10.811476
v 21.386311 0.232180 -9.660309
v 21.388527 -0.118268 -9.658089
v 21.467581 -0.118268 -9.467241
v 21.467581 -0.118268 -4.332421
v 20.269720 -0.118268 -5.108686
v 20.269720 -0.118268 -7.410716
v 17.987766 -0.118268 -9.732821
v 14.802402 -0.118268 -9.732821
v 13.678155 -0.118268 -10.890527
v -21.467581 0.236283 4.332421
v -21.321510 0.382350 4.601136
v -21.328030 0.382350 9.521235
v -21.467581 0.232180 9.464102
v -20.269720 0.236283 5.108686
v -20.415791 0.382350 5.188085
v -20.269720 0.236283 7.410716
v -20.415791 0.382350 7.470474
v -17.987766 0.236283 9.732821
v -18.049015 0.382350 9.878887
v -14.802402 0.236283 9.732821
v -14.864162 0.382350 9.878887
v -13.678155 0.236283 10.890527
v -14.023607 0.382350 10.744459
v -20.041153 0.232180 10.890527
v -20.098289 0.382350 10.750980
v -20.237362 0.232180 10.809256
v -20.044292 -0.118268 10.890527
v -20.235142 -0.118268 10.811476
v -21.386311 0.232180 9.660309
v -21.388527 -0.118268 9.658089
v -21.467581 -0.118268 9.467241
v -21.467581 -0.118268 4.332421
v -20.269720 -0.118268 5.108686
v -20.269720 -0.118268 7.410716
v -17.987766 -0.118268 9.732821
v -14.802402 -0.118268 9.732821
v -13.678155 -0.118268 10.890527
v 21.467581 0.236283 4.332421
v 21.467581 0.232180 9.464102
v 21.328030 0.382350 9.521235
v 21.321510 0.382350 4.601136
v 20.415791 0.382350 5.188085
v 20.269720 0.236283 5.108686
v 20.415791 0.382350 7.470474
v 20.269720 0.236283 7.410716
v 18.049015 0.382350 9.878887
v 17.987766 0.236283 9.732821
v 14.864162 0.382350 9.878887
v 14.802402 0.236283 9.732821
v 14.023607 0.382350 10.744459
v 13.678155 0.236283 10.890527
v 20.098289 0.382350 10.750980
v 20.041153 0.232180 10.890527
v 20.237362 0.232180 10.809256
v 20.235142 -0.118268 10.811476
v 20.044292 -0.118268 10.890527
v 21.386311 0.232180 9.660309
v 21.467581 -0.118268 9.467241
v 21.388527 -0.118268 9.658089
v 21.467581 -0.118268 4.332421
v 20.269720 -0.118268 5.108686
v 20.269720 -0.118268 7.410716
v 17.987766 -0.118268 9.732821
v 14.802402 -0.118268 9.732821
v 13.678155 -0.118268 10.890527
vt 0.589271 0.046314
vt 0.582257 0.052316
vt 0.571168 0.041375
vt 0.577929 0.034856
vt 0.590665 0.056655
vt 0.533198 0.104484
vt 0.521533 0.094073
vt 0.820228 0.016383
vt 0.821210 0.032184
vt 0.809810 0.042185
vt 0.538033 0.112598
vt 0.789364 0.090936
vt 0.795626 0.104348
vt 0.695648 0.114125
vt 0.688012 0.100539
vt 0.601305 0.213657
vt 0.586657 0.207698
vt 0.784575 0.083033
vt 0.683799 0.091572
vt 0.577428 0.204038
vt 0.893615 0.984645
vt 0.893615 0.011918
vt 0.900564 0.011918
vt 0.900564 0.984645
vt 0.905197 0.984645
vt 0.905197 0.011918
vt 0.912147 0.984645
vt 0.912147 0.011918
vt 0.923730 0.011918
vt 0.923730 0.984645
vt 0.958957 0.984646
vt 0.952007 0.984646
vt 0.952007 0.011918
vt 0.958957 0.011918
vt 0.947375 0.984646
vt 0.947375 0.011918
vt 0.982122 0.984646
vt 0.970540 0.984646
vt 0.970540 0.011918
vt 0.982122 0.011918
vt 0.575679 0.346070
vt 0.538040 0.384448
vt 0.584273 0.349334
vt 0.535113 0.402102
vt 0.528871 0.115174
vt 0.935312 0.011918
vt 0.935312 0.984645
vt 0.940425 0.984646
vt 0.940425 0.011918
vt 0.513216 0.115061
vt 0.547334 0.412241
vt 0.599104 0.353483
vt 0.512971 0.399948
vt 0.528806 0.399923
vt 0.837566 0.048638
vt 0.824349 0.038413
vt 0.591529 0.031718
vt 0.592641 0.047337
vt 0.527573 0.111868
vt 0.515606 0.101252
vt 0.570155 0.962411
vt 0.581555 0.952409
vt 0.800700 0.937939
vt 0.798724 0.947257
vt 0.567015 0.956182
vt 0.602001 0.903659
vt 0.606790 0.911562
vt 0.703353 0.894055
vt 0.707566 0.903023
vt 0.804707 0.786896
vt 0.813937 0.790557
vt 0.807092 0.645260
vt 0.815686 0.648524
vt 0.856252 0.592493
vt 0.853325 0.610146
vt 0.862559 0.594671
vt 0.862494 0.879420
vt 0.853331 0.881997
vt 0.858166 0.890110
vt 0.863792 0.882726
vt 0.875759 0.893342
vt 0.869832 0.900522
vt 0.809108 0.942279
vt 0.802093 0.948280
vt 0.820197 0.953220
vt 0.813436 0.959739
vt 0.799836 0.962877
vt 0.571136 0.978211
vt 0.553798 0.945957
vt 0.595739 0.890246
vt 0.695717 0.880470
vt 0.790059 0.780938
vt 0.792261 0.641112
vt 0.844030 0.582353
vt 0.878394 0.594647
vt 0.878149 0.879534
vt 0.574752 0.443124
vt 0.586152 0.433122
vt 0.805296 0.418652
vt 0.803321 0.427971
vt 0.571612 0.436895
vt 0.606597 0.384372
vt 0.611387 0.392275
vt 0.707950 0.374769
vt 0.712163 0.383736
vt 0.809304 0.267610
vt 0.818533 0.271270
vt 0.811688 0.125973
vt 0.820282 0.129238
vt 0.860849 0.073206
vt 0.857921 0.090859
vt 0.867155 0.075384
vt 0.867090 0.360133
vt 0.857928 0.362710
vt 0.862763 0.370823
vt 0.868388 0.363440
vt 0.880355 0.374055
vt 0.874428 0.381235
vt 0.813705 0.422992
vt 0.806690 0.428994
vt 0.824794 0.433933
vt 0.818032 0.440452
vt 0.804432 0.443590
vt 0.575734 0.458924
vt 0.558395 0.426670
vt 0.600336 0.370960
vt 0.700314 0.361183
vt 0.794656 0.261651
vt 0.796857 0.121825
vt 0.848627 0.063066
vt 0.882990 0.075360
vt 0.882746 0.360247
vt 0.823211 0.539407
vt 0.594642 0.554560
vt 0.592666 0.563878
vt 0.811812 0.549408
vt 0.786577 0.590256
vt 0.791365 0.598158
vt 0.826351 0.545635
vt 0.685801 0.598795
vt 0.690013 0.607762
vt 0.579430 0.711260
vt 0.588658 0.714921
vt 0.577680 0.853293
vt 0.586274 0.856557
vt 0.540041 0.891671
vt 0.537114 0.909325
vt 0.540035 0.619821
vt 0.530873 0.622397
vt 0.530807 0.907146
vt 0.535200 0.611707
vt 0.523535 0.601296
vt 0.517608 0.608475
vt 0.529575 0.619091
vt 0.584258 0.559538
vt 0.591273 0.553537
vt 0.579931 0.542078
vt 0.573169 0.548597
vt 0.822230 0.523606
vt 0.593531 0.538940
vt 0.797628 0.611571
vt 0.839567 0.555860
vt 0.697649 0.621348
vt 0.603307 0.720880
vt 0.601106 0.860705
vt 0.549336 0.919464
vt 0.515217 0.622283
vt 0.514973 0.907170
vn 0.000000 0.000000 1.000000
vn 0.000000 0.000000 1.000000
vn 0.000000 0.000000 1.000000
vn 0.000000 0.000000 1.000000
vn 0.000000 1.000000 0.000000
vn 0.000000 1.000000 0.000000
vn 0.000000 1.000000 0.000000
vn 0.000000 1.000000 0.000000
vn 0.000000 0.000000 -1.000000
vn 0.000000 0.000000 -1.000000
vn 0.000000 0.000000 -1.000000
vn 0.000000 0.000000 -1.000000
vn 0.000000 -1.000000 0.000000
vn 0.000000 -1.000000 0.000000
vn 0.000000 -1.000000 0.000000
vn 0.000000 -1.000000 0.000000
vn 0.000000 0.000000 -1.000000
vn 0.000000 0.000000 -1.000000
vn 0.000000 0.000000 -1.000000
vn 0.000000 0.000000 -1.000000
vn 0.000000 1.000000 0.000000
vn 0.000000 1.000000 0.000000
vn 0.000000 1.000000 0.000000
vn 0.000000 1.000000 0.000000
vn 0.000000 0.000000 1.000000
vn 0.000000 0.000000 1.000000
vn 0.000000 0.000000 1.000000
vn 0.000000 0.000000 1.000000
vn 0.000000 -1.000000 0.000000
vn 0.000000 -1.000000 0.000000
vn 0.000000 -1.000000 0.000000
vn 0.000000 -1.000000 0.000000
vn 0.000000 0.707106 -0.707108
vn 0.000000 0.707106 -0.707108
vn 0.000000 0.707106 -0.707108
vn 0.000000 0.707106 -0.707108
vn 0.000000 0.707104 0.707110
vn 0.000000 0.707104 0.707110
vn 0.000000 0.707104 0.707110
vn 0.000000 0.707104 0.707110
vn -0.719790 0.694192 0.000183
vn -0.719790 0.694192 0.000183
vn -0.719790 0.694192 0.000183
vn -0.719790 0.694192 0.000183
vn 0.384547 0.707110 0.593397
vn 0.384547 0.707110 0.593397
vn 0.384547 0.707110 0.593397
vn 0.384547 0.707110 0.593397
vn 0.707096 0.707117 0.000000
vn 0.707096 0.707117 0.000000
vn 0.707096 0.707117 0.000000
vn 0.707096 0.707117 0.000000
vn 0.504338 0.707111 0.495618
vn 0.504338 0.707111 0.495618
vn 0.504338 0.707111 0.495618
vn 0.504338 0.707112 0.495618
vn 0.000000 0.707105 0.707109
vn 0.000000 0.707105 0.707109
vn 0.000000 0.707105 0.707109
vn 0.000000 0.707105 0.707109
vn 0.507278 0.707106 0.492617
vn 0.507278 0.707106 0.492617
vn 0.507278 0.707106 0.492616
vn 0.507278 0.707105 0.492616
vn 0.000148 0.694185 -0.719797
vn 0.000148 0.694185 -0.719797
vn 0.000148 0.694185 -0.719797
vn 0.000148 0.694185 -0.719797
vn -0.382677 0.003428 -0.923876
vn -0.382677 0.003428 -0.923876
vn -0.382677 0.003428 -0.923876
vn -0.382677 0.003428 -0.923876
vn -0.517986 0.680721 -0.517986
vn -0.517986 0.680721 -0.517986
vn -0.517986 0.680721 -0.517986
vn -0.517986 0.680721 -0.517986
vn -0.923873 0.003427 -0.382683
vn -0.923873 0.003427 -0.382683
vn -0.923873 0.003427 -0.382683
vn -0.923873 0.003427 -0.382683
vn -1.000000 0.000000 0.000000
vn -1.000000 0.000000 0.000000
vn -1.000000 0.000000 0.000000
vn -1.000000 0.000000 0.000000
vn 0.543833 0.000000 0.839193
vn 0.543833 0.000000 0.839193
vn 0.543833 0.000000 0.839193
vn 0.543833 0.000000 0.839193
vn 1.000000 0.000000 0.000000
vn 1.000000 0.000000 0.000000
vn 1.000000 0.000000 0.000000
vn 1.000000 0.000000 0.000000
vn 0.713246 0.000000 0.700914
vn 0.713246 0.000000 0.700914
vn 0.713246 0.000000 0.700914
vn 0.713246 0.000000 0.700914
vn 0.000000 0.000000 1.000000
vn 0.000000 0.000000 1.000000
vn 0.000000 0.000000 1.000000
vn 0.000000 0.000000 1.000000
vn 0.717398 0.000000 0.696664
vn 0.717398 0.000000 0.696664
vn 0.717398 0.000000 0.696664
vn 0.717398 0.000000 0.696664
vn 0.000000 0.000000 -1.000000
vn 0.000000 0.000000 -1.000000
vn 0.000000 0.000000 -1.000000
vn 0.000000 0.000000 -1.000000
vn 0.000000 1.000000 0.000000
vn 0.000000 1.000000 0.000000
vn 0.000000 1.000000 0.000000
vn 0.000000 1.000000 0.000000
vn 0.000000 1.000000 0.000000
vn 0.000000 1.000000 0.000000
vn 0.000000 1.000000 0.000000
vn 0.000000 1.000000 0.000000
vn -0.707107 -0.000003 -0.707107
vn -0.707107 -0.000003 -0.707107
vn -0.707107 -0.000003 -0.707107
vn -0.707107 -0.000003 -0.707107
vn -0.311597 0.580499 -0.752282
vn -0.311597 0.580499 -0.752282
vn -0.311597 0.580499 -0.752282
vn -0.752273 0.580514 -0.311591
vn -0.752273 0.580514 -0.311591
vn -0.752273 0.580514 -0.311591
vn 0.719789 0.694193 0.000183
vn 0.719789 0.694193 0.000183
vn 0.719789 0.694193 0.000183
vn 0.719789 0.694193 0.000183
vn -0.384547 0.707109 0.593397
vn -0.384548 0.707109 0.593397
vn -0.384548 0.707109 0.593397
vn -0.384547 0.707109 0.593397
vn -0.707098 0.707116 0.000000
vn -0.707098 0.707116 0.000000
vn -0.707098 0.707116 0.000000
vn -0.707098 0.707116 0.000000
vn -0.504338 0.707111 0.495618
vn -0.504338 0.707111 0.495618
vn -0.504338 0.707111 0.495618
vn -0.504338 0.707111 0.495618
vn 0.000000 0.707105 0.707109
vn 0.000000 0.707105 0.707109
vn 0.000000 0.707105 0.707109
vn 0.000000 0.707105 0.707109
vn -0.507279 0.707104 0.492617
vn -0.507279 0.707104 0.492617
vn -0.507279 0.707104 0.492617
vn -0.507279 0.707104 0.492617
vn -0.000148 0.694185 -0.719797
vn -0.000148 0.694185 -0.719797
vn -0.000148 0.694185 -0.719797
vn -0.000148 0.694185 -0.719797
vn 0.382677 0.003428 -0.923876
vn 0.382677 0.003428 -0.923876
vn 0.382677 0.003428 -0.923876
vn 0.382677 0.003428 -0.923876
vn 0.517985 0.680722 -0.517985
vn 0.517985 0.680722 -0.517985
vn 0.517985 0.680722 -0.517985
vn 0.517985 0.680722 -0.517985
vn 0.923873 0.003430 -0.382683
vn 0.923873 0.003430 -0.382683
vn 0.923873 0.003430 -0.382683
vn 0.923873 0.003430 -0.382683
vn 1.000000 0.000000 0.000000
vn 1.000000 0.000000 0.000000
vn 1.000000 0.000000 0.000000
vn 1.000000 0.000000 0.000000
vn -0.543833 0.000000 0.839193
vn -0.543833 0.000000 0.839193
vn -0.543833 0.000000 0.839193
vn -0.543833 0.000000 0.839193
vn -1.000000 0.000000 0.000000
vn -1.000000 0.000000 0.000000
vn -1.000000 0.000000 0.000000
vn -1.000000 0.000000 0.000000
vn -0.713246 0.000000 0.700914
vn -0.713246 0.000000 0.700914
vn -0.713246 0.000000 0.700914
vn -0.713246 0.000000 0.700914
vn 0.000000 0.000000 1.000000
vn 0.000000 0.000000 1.000000
vn 0.000000 0.000000 1.000000
vn 0.000000 0.000000 1.000000
vn -0.717398 0.000000 0.696664
vn -0.717398 0.000000 0.696664
vn -0.717398 0.000000 0.696664
vn -0.717398 0.000000 0.696664
vn 0.000000 0.000000 -1.000000
vn 0.000000 0.000000 -1.000000
vn 0.000000 0.000000 -1.000000
vn 0.000000 0.000000 -1.000000
vn 0.000000 1.000000 0.000000
vn 0.000000 1.000000 0.000000
vn 0.000000 1.000000 0.000000
vn 0.000000 1.000000 0.000000
vn 0.000000 1.000000 0.000000
vn 0.000000 1.000000 0.000000
vn 0.000000 1.000000 0.000000
vn 0.000000 1.000000 0.000000
vn 0.707107 -0.000003 -0.707107
vn 0.707107 -0.000003 -0.707107
vn 0.707107 -0.000003 -0.707107
vn 0.707107 -0.000003 -0.707107
vn 0.311597 0.580499 -0.752282
vn 0.311597 0.580499 -0.752282
vn 0.311597 0.580499 -0.752282
vn 0.752268 0.580522 -0.311589
vn 0.752268 0.580522 -0.311589
vn 0.752268 0.580522 -0.311589
vn -0.719789 0.694193 -0.000183
vn -0.719789 0.694193 -0.000183
vn -0.719789 0.694193 -0.000183
vn -0.719789 0.694193 -0.000183
vn 0.384547 0.707109 -0.593397
vn 0.384548 0.707109 -0.593397
vn 0.384548 0.707109 -0.593397
vn 0.384547 0.707109 -0.593397
vn 0.707098 0.707116 0.000000
vn 0.707098 0.707116 0.000000
vn 0.707098 0.707116 0.000000
vn 0.707098 0.707116 0.000000
vn 0.504338 0.707111 -0.495618
vn 0.504338 0.707111 -0.495618
vn 0.504338 0.707111 -0.495618
vn 0.504338 0.707111 -0.495618
vn 0.000000 0.707105 -0.707109
vn 0.000000 0.707105 -0.707109
vn 0.000000 0.707105 -0.707109
vn 0.000000 0.707105 -0.707109
vn 0.507279 0.707104 -0.492617
vn 0.507279 0.707104 -0.492617
vn 0.507279 0.707104 -0.492617
vn 0.507279 0.707104 -0.492617
vn 0.000148 0.694185 0.719797
vn 0.000148 0.694185 0.719797
vn 0.000148 0.694185 0.719797
vn 0.000148 0.694185 0.719797
vn -0.382677 0.003428 0.923876
vn -0.382677 0.003428 0.923876
vn -0.382677 0.003428 0.923876
vn -0.382677 0.003428 0.923876
vn -0.517985 0.680722 0.517985
vn -0.517985 0.680722 0.517985
vn -0.517985 0.680722 0.517985
vn -0.517985 0.680722 0.517985
vn -0.923873 0.003430 0.382683
vn -0.923873 0.003430 0.382683
vn -0.923873 0.003430 0.382683
vn -0.923873 0.003430 0.382683
vn -1.000000 0.000000 0.000000
vn -1.000000 0.000000 0.000000
vn -1.000000 0.000000 0.000000
vn -1.000000 0.000000 0.000000
vn 0.543833 0.000000 -0.839193
vn 0.543833 0.000000 -0.839193
vn 0.543833 0.000000 -0.839193
vn 0.543833 0.000000 -0.839193
vn 1.000000 0.000000 0.000000
vn 1.000000 0.000000 0.000000
vn 1.000000 0.000000 0.000000
vn 1.000000 0.000000 0.000000
vn 0.713246 0.000000 -0.700914
vn 0.713246 0.000000 -0.700914
vn 0.713246 0.000000 -0.700914
vn 0.713246 0.000000 -0.700914
vn 0.000000 0.000000 -1.000000
vn 0.000000 0.000000 -1.000000
vn 0.000000 0.000000 -1.000000
vn 0.000000 0.000000 -1.000000
vn 0.717398 0.000000 -0.696664
vn 0.717398 0.000000 -0.696664
vn 0.717398 0.000000 -0.696664
vn 0.717398 0.000000 -0.696664
vn 0.000000 0.000000 1.000000
vn 0.000000 0.000000 1.000000
vn 0.000000 0.000000 1.000000
vn 0.000000 0.000000 1.000000
vn 0.000000 1.000000 -0.000000
vn 0.000000 1.000000 -0.000000
vn 0.000000 1.000000 -0.000000
vn 0.000000 1.000000 -0.000000
vn 0.000000 1.000000 -0.000000
vn 0.000000 1.000000 -0.000000
vn 0.000000 1.000000 -0.000000
vn 0.000000 1.000000 -0.000000
vn -0.707107 -0.000003 0.707107
vn -0.707107 -0.000003 0.707107
vn -0.707107 -0.000003 0.707107
vn -0.707107 -0.000003 0.707107
vn -0.311597 0.580499 0.752282
vn -0.311597 0.580499 0.752282
vn -0.311597 0.580499 0.752282
vn -0.752268 0.580522 0.311589
vn -0.752268 0.580522 0.311589
vn -0.752268 0.580522 0.311589
vn 0.719790 0.694192 -0.000183
vn 0.719790 0.694192 -0.000183
vn 0.719790 0.694192 -0.000183
vn 0.719790 0.694192 -0.000183
vn -0.384547 0.707110 -0.593397
vn -0.384547 0.707110 -0.593397
vn -0.384547 0.707110 -0.593397
vn -0.384547 0.707110 -0.593397
vn -0.707096 0.707117 0.000000
vn -0.707096 0.707117 0.000000
vn -0.707096 0.707117 0.000000
vn -0.707096 0.707117 0.000000
vn -0.504338 0.707111 -0.495618
vn -0.504338 0.707111 -0.495618
vn -0.504338 0.707111 -0.495618
vn -0.504338 0.707112 -0.495618
vn 0.000000 0.707105 -0.707109
vn 0.000000 0.707105 -0.707109
vn 0.000000 0.707105 -0.707109
vn 0.000000 0.707105 -0.707109
vn -0.507278 0.707106 -0.492617
vn -0.507278 0.707106 -0.492617
vn -0.507278 0.707106 -0.492616
vn -0.507278 0.707105 -0.492616
vn -0.000148 0.694185 0.719797
vn -0.000148 0.694185 0.719797
vn -0.000148 0.694185 0.719797
vn -0.000148 0.694185 0.719797
vn 0.382677 0.003428 0.923876
vn 0.382677 0.003428 0.923876
vn 0.382677 0.003428 0.923876
vn 0.382677 0.003428 0.923876
vn 0.517986 0.680721 0.517986
vn 0.517986 0.680721 0.517986
vn 0.517986 0.680721 0.517986
vn 0.517986 0.680721 0.517986
vn 0.923873 0.003427 0.382683
vn 0.923873 0.003427 0.382683
vn 0.923873 0.003427 0.382683
vn 0.923873 0.003427 0.382683
vn 1.000000 0.000000 0.000000
vn 1.000000 0.000000 0.000000
vn 1.000000 0.000000 0.000000
vn 1.000000 0.000000 0.000000
vn -0.543833 0.000000 -0.839193
vn -0.543833 0.000000 -0.839193
vn -0.543833 0.000000 -0.839193
vn -0.543833 0.000000 -0.839193
vn -1.000000 0.000000 0.000000
vn -1.000000 0.000000 0.000000
vn -1.000000 0.000000 0.000000
vn -1.000000 0.000000 0.000000
vn -0.713246 0.000000 -0.700914
vn -0.713246 0.000000 -0.700914
vn -0.713246 0.000000 -0.700914
vn -0.713246 0.000000 -0.700914
vn 0.000000 0.000000 -1.000000
vn 0.000000 0.000000 -1.000000
vn 0.000000 0.000000 -1.000000
vn 0.000000 0.000000 -1.000000
vn -0.717398 0.000000 -0.696664
vn -0.717398 0.000000 -0.696664
vn -0.717398 0.000000 -0.696664
vn -0.717398 0.000000 -0.696664
vn -0.000000 0.000000 1.000000
vn -0.000000 0.000000 1.000000
vn -0.000000 0.000000 1.000000
vn -0.000000 0.000000 1.000000
vn 0.000000 1.000000 0.000000
vn 0.000000 1.000000 0.000000
vn 0.000000 1.000000 0.000000
vn 0.000000 1.000000 0.000000
vn 0.000000 1.000000 0.000000
vn 0.000000 1.000000 0.000000
vn 0.000000 1.000000 0.000000
vn 0.000000 1.000000 0.000000
vn 0.707107 -0.000003 0.707107
vn 0.707107 -0.000003 0.707107
vn 0.707107 -0.000003 0.707107
vn 0.707107 -0.000003 0.707107
vn 0.311597 0.580499 0.752282
vn 0.311597 0.580499 0.752282
vn 0.311597 0.580499 0.752282
vn 0.752273 0.580514 0.311591
vn 0.752273 0.580514 0.311591
vn 0.752273 0.580514 0.311591
s off
g Border
usemtl lambert2SG
f 9/38/9 10/37/10 12/54/11 11/55/12
f 11/29/13 12/30/14 24/31/15 22/32/16
f 21/33/17 23/34/18 14/36/19 13/35/20
f 13/35/21 14/36/22 10/37/23 9/38/24
f 15/46/25 17/39/26 18/42/27 16/47/28
f 17/39/29 26/40/30 28/41/31 18/42/32
f 27/44/33 25/43/34 19/56/35 20/57/36
f 19/45/37 15/46/38 16/47/39 20/48/40
f 21/33/41 22/32/42 24/31/43 23/34/44
f 26/40/45 25/43/46 27/44/47 28/41/48
f 35/17/49 36/18/50 51/13/51 50/66/52
f 36/18/53 35/64/54 38/20/55 37/26/56
f 37/26/57 38/20/58 40/23/59 39/27/60
f 39/27/61 40/23/62 42/25/63 41/28/64
f 41/28/65 42/25/66 44/51/67 43/49/68
f 43/49/69 44/51/70 46/52/71 45/50/72
f 45/50/73 46/62/74 49/53/75 48/19/76
f 47/14/77 49/67/78 53/68/79 54/15/80
f 48/19/81 47/14/82 52/10/83 51/13/84
f 50/9/85 52/10/86 55/11/87 56/12/88
f 50/66/89 56/65/90 29/16/91 35/17/92
f 35/64/93 29/63/94 30/21/95 38/20/96
f 38/20/97 30/21/98 31/22/99 40/23/100
f 40/23/101 31/22/102 32/24/103 42/25/104
f 42/25/105 32/24/106 33/60/107 44/51/108
f 44/51/109 33/60/110 34/59/111 46/52/112
f 46/62/113 34/61/114 53/58/115 49/53/116
f 48/19/117 51/13/118 36/18/119 37/26/120 39/27/121 41/28/122 43/49/123 45/50/124
f 47/14/125 54/15/126 55/11/127 52/10/128
f 47/14/129 48/19/130 49/67/131
f 50/9/132 51/13/133 52/10/134
f 57/69/135 60/72/136 59/71/137 58/70/138
f 58/70/139 62/75/140 61/74/141 57/73/142
f 62/75/143 64/77/144 63/76/145 61/74/146
f 64/77/147 66/79/148 65/78/149 63/76/150
f 66/79/151 68/81/152 67/80/153 65/78/154
f 68/81/155 70/83/156 69/82/157 67/80/158
f 70/83/159 72/86/160 71/85/161 69/84/162
f 73/87/163 75/90/164 74/89/165 71/88/166
f 72/86/167 59/71/168 76/91/169 73/87/170
f 60/92/171 78/94/172 77/93/173 76/91/174
f 60/72/175 57/69/176 79/96/177 78/95/178
f 57/73/179 61/74/180 80/98/181 79/97/182
f 61/74/183 63/76/184 81/99/185 80/98/186
f 63/76/187 65/78/188 82/100/189 81/99/190
f 65/78/191 67/80/192 83/101/193 82/100/194
f 67/80/195 69/82/196 84/102/197 83/101/198
f 69/84/199 71/85/200 74/104/201 84/103/202
f 72/86/203 70/83/204 68/81/205 66/79/206 64/77/207 62/75/208 58/70/209 59/71/210
f 73/87/211 76/91/212 77/93/213 75/90/214
f 73/87/215 71/88/216 72/86/217
f 60/92/218 76/91/219 59/71/220
f 85/105/221 88/108/222 87/107/223 86/106/224
f 86/106/225 90/111/226 89/110/227 85/109/228
f 90/111/229 92/113/230 91/112/231 89/110/232
f 92/113/233 94/115/234 93/114/235 91/112/236
f 94/115/237 96/117/238 95/116/239 93/114/240
f 96/117/241 98/119/242 97/118/243 95/116/244
f 98/119/245 100/122/246 99/121/247 97/120/248
f 101/123/249 103/126/250 102/125/251 99/124/252
f 100/122/253 87/107/254 104/127/255 101/123/256
f 88/128/257 106/130/258 105/129/259 104/127/260
f 88/108/261 85/105/262 107/132/263 106/131/264
f 85/109/265 89/110/266 108/134/267 107/133/268
f 89/110/269 91/112/270 109/135/271 108/134/272
f 91/112/273 93/114/274 110/136/275 109/135/276
f 93/114/277 95/116/278 111/137/279 110/136/280
f 95/116/281 97/118/282 112/138/283 111/137/284
f 97/120/285 99/121/286 102/140/287 112/139/288
f 100/122/289 98/119/290 96/117/291 94/115/292 92/113/293 90/111/294 86/106/295 87/107/296
f 101/123/297 104/127/298 105/129/299 103/126/300
f 101/123/301 99/124/302 100/122/303
f 88/128/304 104/127/305 87/107/306
f 113/141/307 116/144/308 115/143/309 114/142/310
f 116/144/311 113/147/312 118/146/313 117/145/314
f 117/145/315 118/146/316 120/149/317 119/148/318
f 119/148/319 120/149/320 122/151/321 121/150/322
f 121/150/323 122/151/324 124/153/325 123/152/326
f 123/152/327 124/153/328 126/155/329 125/154/330
f 125/154/331 126/158/332 128/157/333 127/156/334
f 129/159/335 128/162/336 131/161/337 130/160/338
f 127/156/339 129/159/340 132/163/341 115/143/342
f 114/164/343 132/163/344 134/166/345 133/165/346
f 114/142/347 133/168/348 135/167/349 113/141/350
f 113/147/351 135/170/352 136/169/353 118/146/354
f 118/146/355 136/169/356 137/171/357 120/149/358
f 120/149/359 137/171/360 138/172/361 122/151/362
f 122/151/363 138/172/364 139/173/365 124/153/366
f 124/153/367 139/173/368 140/174/369 126/155/370
f 126/158/371 140/176/372 131/175/373 128/157/374
f 127/156/375 115/143/376 116/144/377 117/145/378 119/148/379 121/150/380 123/152/381 125/154/382
f 129/159/383 130/160/384 134/166/385 132/163/386
f 129/159/387 127/156/388 128/162/389
f 114/164/390 115/143/391 132/163/392
