# This file uses centimeters as units for non-parametric coordinates.

mtllib Reader.mtl
g default
v -7.148357 -0.047600 3.893618
v 5.944408 -0.047600 3.893618
v -7.148357 0.047600 3.893618
v 5.944408 0.047600 3.893618
v -7.148357 0.047600 3.798419
v 5.944408 0.047600 3.798419
v -7.148357 -0.047600 3.798419
v 5.944408 -0.047600 3.798419
vt 0.919206 0.964326
vt 0.021009 0.980136
vt 0.021063 0.967640
vt 0.021046 0.973613
vt 0.919219 0.970059
vt 0.919231 0.976133
vt 0.919222 0.982932
vt 0.919167 0.990822
vt 0.020946 0.987713
vt 0.021059 0.961962
vn 0.000000 0.000000 1.000000
vn 0.000000 0.000000 1.000000
vn 0.000000 0.000000 1.000000
vn 0.000000 0.000000 1.000000
vn 0.000000 1.000000 0.000000
vn 0.000000 1.000000 0.000000
vn 0.000000 1.000000 0.000000
vn 0.000000 1.000000 0.000000
vn 0.000000 0.000000 -1.000000
vn 0.000000 0.000000 -1.000000
vn 0.000000 0.000000 -1.000000
vn 0.000000 0.000000 -1.000000
vn 0.000000 -1.000000 0.000000
vn 0.000000 -1.000000 0.000000
vn 0.000000 -1.000000 0.000000
vn 0.000000 -1.000000 0.000000
s off
g Brace_L
usemtl lambert2SG
f 1/10/1 2/1/2 4/5/3 3/3/4
f 3/3/5 4/5/6 6/6/7 5/4/8
f 5/4/9 6/6/10 8/7/11 7/2/12
f 7/2/13 8/7/14 2/8/15 1/9/16
g default
v -7.142662 -0.102536 -3.990202
v -7.091399 -0.051273 -3.991037
v -7.545382 -0.051273 -3.635517
v -7.494118 -0.102536 -3.635517
v -7.091399 0.051273 -3.991037
v -7.142662 0.102536 -3.990202
v -7.494118 0.102536 -3.635517
v -7.545382 0.051273 -3.635517
v -7.142662 0.102536 3.990202
v -7.142662 0.051273 4.041466
v -7.091399 0.051273 3.990202
v -7.545382 0.051273 3.635518
v -7.494118 0.102536 3.635518
v -7.091399 -0.051273 3.990202
v -7.142662 -0.051273 4.041466
v -7.142662 -0.102536 3.990202
v -7.494118 -0.102536 3.635518
v -7.545382 -0.051273 3.635518
v -7.648134 0.102536 -1.169069
v -7.701108 0.054188 -1.131610
v -7.649845 -0.102536 0.998278
v -7.701108 -0.051273 0.986118
v -7.530434 0.053960 -0.808293
v -7.491278 0.102536 -0.844844
v -7.530434 0.053817 0.646634
v -7.490246 0.102536 0.683840
v -7.530434 -0.051273 -0.808293
v -7.479170 -0.102536 -0.820993
v -7.701108 -0.051273 -1.131610
v -7.649845 -0.102536 -1.144310
v -7.530434 -0.051273 0.646634
v -7.479170 -0.102536 0.658795
v -7.701108 0.054186 0.986118
v -7.648132 0.102536 1.023577
v -7.139684 0.051273 -4.040268
v -7.139684 -0.051273 -4.040268
vt 0.444799 0.912205
vt 0.445336 0.915526
vt 0.313713 0.915346
vt 0.313067 0.912099
vt 0.313067 0.905658
vt 0.444795 0.905626
vt 0.445329 0.902292
vt 0.315017 0.902601
vt 0.053398 0.905949
vt 0.052883 0.902625
vt 0.190977 0.902599
vt 0.192939 0.905734
vt 0.192949 0.912342
vt 0.053410 0.912538
vt 0.052915 0.915881
vt 0.192335 0.915640
vt 0.034986 0.937039
vt 0.034990 0.933586
vt 0.415195 0.933536
vt 0.415239 0.936990
vt 0.415240 0.941876
vt 0.034986 0.941925
vt 0.415196 0.945330
vt 0.034991 0.945379
vt 0.210932 0.902261
vt 0.296005 0.902274
vt 0.294170 0.905512
vt 0.212803 0.905530
vt 0.294163 0.912355
vt 0.212823 0.912430
vt 0.294615 0.915810
vt 0.212412 0.915895
vt 0.393427 0.631896
vt 0.354270 0.650026
vt 0.053446 0.631854
vt 0.012651 0.591313
vt 0.931852 0.592634
vt 0.890940 0.633057
vt 0.606824 0.650389
vt 0.569505 0.632268
vt 0.589819 0.732722
vt 0.550517 0.712830
vt 0.378967 0.712367
vt 0.341432 0.732052
vt 0.052678 0.713220
vt 0.011670 0.672366
vt 0.936828 0.674860
vt 0.895600 0.715493
vt 0.476150 0.912479
vt 0.474348 0.915923
vt 0.479795 0.912501
vt 0.476141 0.905297
vt 0.479771 0.905257
vt 0.474331 0.901869
vt 0.022972 0.906095
vt 0.024582 0.902727
vt 0.019354 0.906117
vt 0.023016 0.912943
vt 0.019408 0.913001
vt 0.024683 0.916306
vn -0.532708 -0.587821 -0.608842
vn -0.562401 -0.573528 -0.595627
vn -0.586066 -0.561350 -0.584305
vn -0.586066 -0.561350 -0.584305
vn -0.709151 -0.703669 -0.044217
vn -0.709151 -0.703669 -0.044217
vn -0.704352 -0.709846 0.002692
vn -0.704064 -0.710118 0.005088
vn -0.616554 0.000000 -0.787312
vn -0.616554 0.000000 -0.787312
vn -0.706281 0.000000 -0.707932
vn -0.706281 0.000000 -0.707932
vn -0.586066 0.561350 -0.584305
vn -0.562400 0.573528 -0.595627
vn -0.532708 0.587821 -0.608842
vn -0.586066 0.561350 -0.584305
vn -0.698421 0.714337 -0.043943
vn -0.698421 0.714337 -0.043943
vn -0.680640 0.732270 0.022584
vn -0.690322 0.723402 -0.012016
vn -0.579803 0.577357 0.574881
vn -0.579803 0.577357 0.574881
vn -0.579803 0.577357 0.574881
vn -0.579803 0.577357 0.574881
vn 0.707107 0.000000 0.707106
vn 0.707107 0.000000 0.707106
vn 0.707107 0.000000 0.707106
vn 0.707107 0.000000 0.707106
vn -0.698042 0.714854 0.041490
vn -0.698042 0.714854 0.041490
vn -0.690164 0.723563 0.011426
vn -0.680561 0.732361 -0.022014
vn -0.709924 0.000000 0.704278
vn -0.709924 0.000000 0.704278
vn -0.709924 0.000000 0.704278
vn -0.709924 0.000000 0.704278
vn 0.707109 -0.707104 0.000000
vn 0.707109 -0.707104 0.000000
vn 0.707109 -0.707104 0.000000
vn 0.707109 -0.707104 0.000000
vn -0.579803 -0.577357 0.574881
vn -0.579803 -0.577357 0.574881
vn -0.579803 -0.577357 0.574881
vn -0.579803 -0.577357 0.574881
vn -0.708958 -0.704013 0.041767
vn -0.708958 -0.704013 0.041767
vn -0.704354 -0.709834 -0.004736
vn -0.704600 -0.709600 -0.002596
vn -0.749824 0.659945 0.047299
vn -0.718965 0.687977 0.098881
vn -0.697705 -0.713347 -0.065905
vn -0.697705 -0.713347 -0.065905
vn 0.707109 0.707104 0.000000
vn 0.707109 0.707104 0.000000
vn 0.707109 0.707104 0.000000
vn 0.707109 0.707104 0.000000
vn -0.717327 0.689803 -0.098050
vn -0.749270 0.660648 -0.046258
vn -0.697260 -0.713731 0.066458
vn -0.697260 -0.713731 0.066458
vn 0.000000 1.000000 -0.000000
vn 0.000000 1.000000 -0.000000
vn 0.000000 1.000000 -0.000000
vn 0.000000 1.000000 -0.000000
vn 0.000000 1.000000 -0.000000
vn 0.000000 1.000000 -0.000000
vn 0.000000 1.000000 -0.000000
vn 0.000000 1.000000 -0.000000
vn 0.000000 -1.000000 0.000000
vn 0.000000 -1.000000 0.000000
vn 0.000000 -1.000000 0.000000
vn 0.000000 -1.000000 0.000000
vn 0.000000 -1.000000 0.000000
vn 0.000000 -1.000000 0.000000
vn 0.000000 -1.000000 0.000000
vn 0.000000 -1.000000 0.000000
vn -0.995409 0.000000 0.095712
vn -0.995412 0.000000 0.095677
vn -0.995499 0.000000 -0.094769
vn -0.995495 0.000000 -0.094811
vn 1.000000 0.000000 0.000000
vn 1.000000 0.000000 0.000000
vn 1.000000 0.000000 0.000000
vn 1.000000 0.000000 0.000000
vn -0.999982 0.000000 0.006079
vn -0.999982 0.000000 0.006058
vn -0.999984 0.000000 -0.005692
vn -0.999984 0.000000 -0.005696
vn -0.998072 0.000000 -0.062073
vn -0.998072 0.000000 -0.062073
vn -0.998277 0.000000 0.058677
vn -0.998277 0.000000 0.058677
vn 0.577345 0.577358 0.577347
vn 0.577345 0.577358 0.577347
vn 0.577345 0.577358 0.577347
vn 0.577345 -0.577358 0.577347
vn 0.577345 -0.577358 0.577347
vn 0.577345 -0.577358 0.577347
vn 0.577909 0.587156 -0.566806
vn 0.713932 0.000000 -0.700215
vn 0.713932 0.000000 -0.700215
vn 0.577909 -0.587156 -0.566806
s 1
g Handle_L
usemtl lambert2SG
f 44/59/17 9/60/18 12/12/19 11/11/20
s 2
f 11/11/21 12/12/22 38/13/23 37/14/24
s 3
f 43/62/25 44/59/26 11/11/27 16/16/28
s 4
f 15/17/29 14/64/30 43/62/31 16/16/32
s 5
f 15/17/33 16/16/34 28/15/35 27/18/36
s off
f 18/65/37 17/66/38 21/20/39 20/19/40
f 19/67/41 18/65/42 23/68/43 22/69/44
s 5
f 20/19/45 21/20/46 42/21/47 41/22/48
s off
f 18/65/49 20/19/50 26/24/51 23/68/52
f 22/27/53 24/28/54 9/29/55 10/30/56
f 25/25/57 24/70/58 23/68/59 26/24/60
s 2
f 25/25/61 26/24/62 30/23/63 29/26/64
s 5
f 28/15/35 31/37/65 32/36/66 27/18/36
s 2
f 29/26/64 30/23/63 39/40/67 40/42/68
s off
f 13/31/69 14/33/70 17/34/71 19/32/72
s 5
f 34/35/73 32/36/66 31/37/65 33/38/74
f 34/35/73 33/38/74 41/22/48 42/21/47
s 2
f 35/39/75 36/41/76 40/42/68 39/40/67
f 36/41/76 35/39/75 37/14/24 38/13/23
s off
f 34/43/77 42/44/78 21/45/79 17/46/80 14/47/81 15/48/82 27/49/83 32/50/84
f 29/51/85 40/52/86 36/53/87 38/54/88 12/55/89 9/56/90 24/57/91 25/58/92
s 8
f 31/37/93 35/39/94 39/40/95 33/38/96
s off
f 13/31/97 19/32/98 22/27/99 10/30/100
s 8
f 28/15/101 37/14/102 35/39/94 31/37/93
f 33/38/96 39/40/95 30/23/103 41/22/104
f 11/11/105 37/14/102 28/15/101 16/16/106
f 41/22/104 30/23/103 26/24/107 20/19/108
s off
f 17/66/109 18/65/110 19/67/111
f 22/69/112 23/68/113 24/70/114
s 4
f 43/62/31 14/64/30 13/63/115
s 3
f 10/61/116 44/59/26 43/62/25 13/63/117
s 1
f 10/61/118 9/60/18 44/59/17
g default
v -7.148357 -0.047600 -3.797766
v 5.944408 -0.047600 -3.797766
v -7.148357 0.047600 -3.797766
v 5.944408 0.047600 -3.797766
v -7.148357 0.047600 -3.892965
v 5.944408 0.047600 -3.892965
v -7.148357 -0.047600 -3.892965
v 5.944408 -0.047600 -3.892965
vt 0.919206 0.964326
vt 0.021009 0.980136
vt 0.021063 0.967640
vt 0.021046 0.973613
vt 0.919219 0.970059
vt 0.919231 0.976133
vt 0.919222 0.982932
vt 0.919167 0.990822
vt 0.020946 0.987713
vt 0.021059 0.961962
vn 0.000000 0.000000 1.000000
vn 0.000000 0.000000 1.000000
vn 0.000000 0.000000 1.000000
vn 0.000000 0.000000 1.000000
vn 0.000000 1.000000 0.000000
vn 0.000000 1.000000 0.000000
vn 0.000000 1.000000 0.000000
vn 0.000000 1.000000 0.000000
vn 0.000000 0.000000 -1.000000
vn 0.000000 0.000000 -1.000000
vn 0.000000 0.000000 -1.000000
vn 0.000000 0.000000 -1.000000
vn 0.000000 -1.000000 0.000000
vn 0.000000 -1.000000 0.000000
vn 0.000000 -1.000000 0.000000
vn 0.000000 -1.000000 0.000000
s off
g Brace_R
usemtl lambert2SG
f 45/80/119 46/71/120 48/75/121 47/73/122
f 47/73/123 48/75/124 50/76/125 49/74/126
f 49/74/127 50/76/128 52/77/129 51/72/130
f 51/72/131 52/77/132 46/78/133 45/79/134
g default
v 5.937863 -0.102536 3.990202
v 5.886600 -0.051273 3.991036
v 6.340583 -0.051273 3.635517
v 6.289320 -0.102536 3.635517
v 5.886600 0.051273 3.991036
v 5.937863 0.102536 3.990202
v 6.289320 0.102536 3.635517
v 6.340583 0.051273 3.635517
v 5.937863 0.102536 -3.990202
v 5.937863 0.051273 -4.041466
v 5.886600 0.051273 -3.990202
v 6.340583 0.051273 -3.635517
v 6.289320 0.102536 -3.635517
v 5.886600 -0.051273 -3.990202
v 5.937863 -0.051273 -4.041466
v 5.937863 -0.102536 -3.990202
v 6.289320 -0.102536 -3.635517
v 6.340583 -0.051273 -3.635517
v 6.443336 0.102536 1.169069
v 6.496309 0.054188 1.131610
v 6.445046 -0.102536 -0.998278
v 6.496309 -0.051273 -0.986118
v 6.325635 0.053960 0.808293
v 6.286479 0.102536 0.844844
v 6.325635 0.053817 -0.646634
v 6.285448 0.102536 -0.683840
v 6.325635 -0.051273 0.808293
v 6.274372 -0.102536 0.820993
v 6.496309 -0.051273 1.131610
v 6.445046 -0.102536 1.144310
v 6.325635 -0.051273 -0.646634
v 6.274372 -0.102536 -0.658795
v 6.496309 0.054186 -0.986118
v 6.443334 0.102536 -1.023577
v 5.934886 0.051273 4.040269
v 5.934886 -0.051273 4.040269
vt 0.946157 0.911810
vt 0.946694 0.915130
vt 0.815071 0.914950
vt 0.814425 0.911703
vt 0.814425 0.905263
vt 0.946153 0.905231
vt 0.946688 0.901897
vt 0.816375 0.902206
vt 0.554756 0.905554
vt 0.554241 0.902230
vt 0.692336 0.902203
vt 0.694297 0.905338
vt 0.694308 0.911948
vt 0.554768 0.912142
vt 0.554273 0.915486
vt 0.693694 0.915245
vt 0.556271 0.938285
vt 0.556275 0.934831
vt 0.936480 0.934783
vt 0.936525 0.938237
vt 0.936524 0.943123
vt 0.556271 0.943171
vt 0.936481 0.946576
vt 0.556276 0.946625
vt 0.712290 0.901866
vt 0.797363 0.901880
vt 0.795529 0.905117
vt 0.714162 0.905135
vt 0.795521 0.911960
vt 0.714181 0.912035
vt 0.795972 0.915414
vt 0.713770 0.915499
vt 0.390793 0.792360
vt 0.351636 0.810490
vt 0.050812 0.792318
vt 0.010016 0.751777
vt 0.929217 0.753098
vt 0.888306 0.793521
vt 0.604189 0.810853
vt 0.566871 0.792732
vt 0.587188 0.891324
vt 0.547885 0.871431
vt 0.376335 0.870969
vt 0.338800 0.890654
vt 0.050046 0.871822
vt 0.009038 0.830967
vt 0.934196 0.833462
vt 0.892968 0.874095
vt 0.977508 0.912084
vt 0.975706 0.915528
vt 0.981153 0.912106
vt 0.977500 0.904902
vt 0.981129 0.904862
vt 0.975689 0.901474
vt 0.524330 0.905700
vt 0.525940 0.902332
vt 0.520712 0.905722
vt 0.524374 0.912548
vt 0.520766 0.912606
vt 0.526041 0.915911
vn 0.532709 -0.587821 0.608842
vn 0.562401 -0.573528 0.595627
vn 0.586067 -0.561349 0.584305
vn 0.586067 -0.561349 0.584305
vn 0.709148 -0.703672 0.044216
vn 0.709148 -0.703672 0.044216
vn 0.704349 -0.709849 -0.002692
vn 0.704061 -0.710121 -0.005088
vn 0.616554 0.000000 0.787313
vn 0.616554 0.000000 0.787313
vn 0.706281 0.000000 0.707931
vn 0.706281 0.000000 0.707931
vn 0.586067 0.561349 0.584305
vn 0.562401 0.573528 0.595627
vn 0.532708 0.587821 0.608842
vn 0.586067 0.561349 0.584305
vn 0.698429 0.714329 0.043944
vn 0.698429 0.714329 0.043944
vn 0.680647 0.732264 -0.022585
vn 0.690330 0.723395 0.012016
vn 0.579808 0.577347 -0.574885
vn 0.579808 0.577347 -0.574885
vn 0.579808 0.577347 -0.574885
vn 0.579808 0.577347 -0.574885
vn -0.707109 0.000000 -0.707104
vn -0.707109 0.000000 -0.707104
vn -0.707109 0.000000 -0.707104
vn -0.707109 0.000000 -0.707104
vn 0.698037 0.714859 -0.041490
vn 0.698037 0.714859 -0.041490
vn 0.690159 0.723567 -0.011426
vn 0.680556 0.732365 0.022014
vn 0.709924 0.000000 -0.704278
vn 0.709924 0.000000 -0.704278
vn 0.709924 0.000000 -0.704278
vn 0.709924 0.000000 -0.704278
vn -0.707103 -0.707111 0.000000
vn -0.707103 -0.707111 0.000000
vn -0.707103 -0.707111 0.000000
vn -0.707103 -0.707111 0.000000
vn 0.579808 -0.577347 -0.574885
vn 0.579808 -0.577347 -0.574885
vn 0.579808 -0.577347 -0.574885
vn 0.579808 -0.577347 -0.574885
vn 0.708963 -0.704008 -0.041767
vn 0.708963 -0.704008 -0.041767
vn 0.704359 -0.709829 0.004736
vn 0.704605 -0.709595 0.002596
vn 0.749826 0.659942 -0.047299
vn 0.718967 0.687974 -0.098881
vn 0.697703 -0.713350 0.065905
vn 0.697703 -0.713350 0.065905
vn -0.707103 0.707111 0.000000
vn -0.707103 0.707111 0.000000
vn -0.707103 0.707111 0.000000
vn -0.707103 0.707111 0.000000
vn 0.717329 0.689801 0.098050
vn 0.749272 0.660645 0.046258
vn 0.697256 -0.713735 -0.066457
vn 0.697256 -0.713735 -0.066458
vn 0.000000 1.000000 0.000000
vn 0.000000 1.000000 0.000000
vn 0.000000 1.000000 0.000000
vn 0.000000 1.000000 0.000000
vn 0.000000 1.000000 0.000000
vn 0.000000 1.000000 0.000000
vn 0.000000 1.000000 0.000000
vn 0.000000 1.000000 0.000000
vn 0.000000 -1.000000 0.000000
vn 0.000000 -1.000000 0.000000
vn 0.000000 -1.000000 0.000000
vn 0.000000 -1.000000 0.000000
vn 0.000000 -1.000000 0.000000
vn 0.000000 -1.000000 0.000000
vn 0.000000 -1.000000 0.000000
vn 0.000000 -1.000000 0.000000
vn 0.995409 0.000001 -0.095712
vn 0.995413 0.000001 -0.095676
vn 0.995499 -0.000001 0.094769
vn 0.995495 -0.000001 0.094811
vn -1.000000 0.000000 0.000000
vn -1.000000 0.000000 0.000000
vn -1.000000 0.000000 0.000000
vn -1.000000 0.000000 0.000000
vn 0.999982 0.000001 -0.006079
vn 0.999982 0.000001 -0.006058
vn 0.999984 -0.000001 0.005692
vn 0.999984 -0.000001 0.005696
vn 0.998072 0.000000 0.062073
vn 0.998072 0.000000 0.062073
vn 0.998277 0.000000 -0.058677
vn 0.998277 0.000000 -0.058677
vn -0.577350 0.577356 -0.577345
vn -0.577350 0.577356 -0.577345
vn -0.577350 0.577356 -0.577345
vn -0.577350 -0.577356 -0.577345
vn -0.577350 -0.577356 -0.577345
vn -0.577350 -0.577356 -0.577345
vn -0.577918 0.587151 0.566802
vn -0.713940 0.000000 0.700207
vn -0.713940 0.000000 0.700207
vn -0.577918 -0.587151 0.566802
s 1
g Handle_R
usemtl lambert2SG
f 88/129/135 53/130/136 56/82/137 55/81/138
s 2
f 55/81/139 56/82/140 82/83/141 81/84/142
s 3
f 87/132/143 88/129/144 55/81/145 60/86/146
s 4
f 59/87/147 58/134/148 87/132/149 60/86/150
s 5
f 59/87/151 60/86/152 72/85/153 71/88/154
s off
f 62/135/155 61/136/156 65/90/157 64/89/158
f 63/137/159 62/135/160 67/138/161 66/139/162
s 5
f 64/89/163 65/90/164 86/91/165 85/92/166
s off
f 62/135/167 64/89/168 70/94/169 67/138/170
f 66/97/171 68/98/172 53/99/173 54/100/174
f 69/95/175 68/140/176 67/138/177 70/94/178
s 2
f 69/95/179 70/94/180 74/93/181 73/96/182
s 5
f 72/85/153 75/107/183 76/106/184 71/88/154
s 2
f 73/96/182 74/93/181 83/110/185 84/112/186
s off
f 57/101/187 58/103/188 61/104/189 63/102/190
s 5
f 78/105/191 76/106/184 75/107/183 77/108/192
f 78/105/191 77/108/192 85/92/166 86/91/165
s 2
f 79/109/193 80/111/194 84/112/186 83/110/185
f 80/111/194 79/109/193 81/84/142 82/83/141
s off
f 78/113/195 86/114/196 65/115/197 61/116/198 58/117/199 59/118/200 71/119/201 76/120/202
f 73/121/203 84/122/204 80/123/205 82/124/206 56/125/207 53/126/208 68/127/209 69/128/210
s 8
f 75/107/211 79/109/212 83/110/213 77/108/214
s off
f 57/101/215 63/102/216 66/97/217 54/100/218
s 8
f 72/85/219 81/84/220 79/109/212 75/107/211
f 77/108/214 83/110/213 74/93/221 85/92/222
f 55/81/223 81/84/220 72/85/219 60/86/224
f 85/92/222 74/93/221 70/94/225 64/89/226
s off
f 61/136/227 62/135/228 63/137/229
f 66/139/230 67/138/231 68/140/232
s 4
f 87/132/149 58/134/148 57/133/233
s 3
f 54/131/234 88/129/144 87/132/143 57/133/235
s 1
f 54/131/236 53/130/136 88/129/135
g default
v -7.148357 -0.000000 3.845157
v 5.944409 -0.000000 3.845157
v -7.148357 0.000000 -3.845157
v 5.944409 0.000000 -3.845157
vt 0.979432 0.579950
vt 0.017325 0.579949
vt 0.017325 0.014835
vt 0.979432 0.014835
vn 0.000000 1.000000 0.000000
vn 0.000000 1.000000 0.000000
vn 0.000000 1.000000 0.000000
vn 0.000000 1.000000 0.000000
s off
g Screen
usemtl lambert2SG
f 89/141/237 90/142/238 92/143/239 91/144/240
