# This file uses centimeters as units for non-parametric coordinates.

mtllib Safebox.mtl
g default
v -4.108634 0.206574 3.697812
v -4.108634 0.617396 4.108634
v 4.108634 0.206574 3.697812
v 4.108634 0.617396 4.108634
v -4.108634 8.423844 3.697812
v -4.108634 8.013021 4.108634
v 4.108634 8.423844 3.697812
v 4.108634 8.013021 4.108634
v -4.108634 8.013021 -4.108634
v -4.108634 8.423844 -3.697812
v 4.108634 8.013021 -4.108634
v 4.108634 8.423844 -3.697812
v -4.108634 0.206574 -3.697812
v -4.108634 0.617396 -4.108634
v 4.108634 0.206574 -3.697812
v 4.108634 0.617396 -4.108634
v -3.639390 0.685915 3.266402
v -3.639390 1.048806 3.629294
v -3.639390 0.685915 -3.266402
v -3.639390 1.048806 -3.629294
v -3.639390 7.581609 -3.629294
v -3.639390 7.944504 -3.266402
v -3.639390 7.944504 3.266402
v -3.639390 7.581609 3.629294
v 4.108634 0.637985 3.286254
v 4.060705 0.685915 3.266402
v 4.108634 1.028954 3.677224
v 4.060705 1.048806 3.629294
v 4.108634 0.637985 -3.286254
v 4.060705 0.685915 -3.266402
v 4.108634 1.028954 -3.677224
v 4.060705 1.048806 -3.629294
v 4.108634 7.601462 -3.677224
v 4.060705 7.581609 -3.629294
v 4.108634 7.992433 -3.286255
v 4.060705 7.944504 -3.266402
v 4.108634 7.992433 3.286255
v 4.060705 7.944504 3.266402
v 4.108634 7.601462 3.677224
v 4.060705 7.581609 3.629294
v -4.170264 0.028775 -3.753279
v 4.170264 0.028775 -3.753279
v 4.170264 0.028775 3.753279
v -4.170264 0.028775 3.753279
vt 0.809777 0.664109
vt 0.817565 0.671830
vt 0.818176 0.811423
vt 0.810456 0.819211
vt 0.670867 0.819828
vt 0.663079 0.812108
vt 0.662461 0.672504
vt 0.670182 0.664716
vt 0.821112 0.670767
vt 0.821732 0.812454
vt 0.360318 0.805699
vt 0.361587 0.805286
vt 0.368415 0.812071
vt 0.368011 0.813345
vt 0.359755 0.681551
vt 0.361029 0.681955
vt 0.491753 0.811490
vt 0.492167 0.812759
vt 0.360245 0.821511
vt 0.352226 0.813536
vt 0.351591 0.673784
vt 0.367403 0.673858
vt 0.367816 0.675128
vt 0.498540 0.804659
vt 0.499814 0.805062
vt 0.500006 0.820849
vt 0.348679 0.814600
vt 0.348035 0.672752
vt 0.359565 0.665764
vt 0.491578 0.673330
vt 0.491173 0.674604
vt 0.498000 0.681392
vt 0.499269 0.680980
vt 0.507976 0.812815
vt 0.499348 0.665168
vt 0.507363 0.673157
vt 0.182656 0.841484
vt 0.175200 0.834132
vt 0.174281 0.700849
vt 0.181627 0.693389
vt 0.314910 0.692460
vt 0.322365 0.699812
vt 0.323295 0.833095
vt 0.315944 0.840551
vt 0.663128 0.823075
vt 0.508026 0.823780
vt 0.662415 0.661537
vt 0.507317 0.662192
vt 0.662917 0.507451
vt 0.505489 0.508131
vt 0.504873 0.366446
vt 0.662301 0.365763
vt 0.018097 0.835199
vt 0.017187 0.701923
vt 0.017114 0.691452
vt 0.174210 0.690379
vt 0.018168 0.845670
vt 0.175269 0.844603
vt 0.016128 0.547701
vt 0.015213 0.414418
vt 0.172311 0.413340
vt 0.173226 0.546624
vt 0.015141 0.403948
vt 0.172239 0.402870
vt 0.016200 0.558171
vt 0.173297 0.557094
vt 0.663749 0.962673
vt 0.508650 0.963366
vt 0.663797 0.973640
vt 0.508698 0.974333
vt 0.664976 0.977150
vt 0.507550 0.977853
vt 0.506715 0.522607
vt 0.661817 0.521938
vt 0.661769 0.510971
vt 0.506668 0.511641
vt 0.019072 0.978952
vt 0.176170 0.977886
vn 0.000000 0.000000 1.000000
vn 0.000000 0.000000 1.000000
vn 0.000000 0.000000 1.000000
vn 0.000000 0.000000 1.000000
vn 0.000000 1.000000 0.000000
vn 0.000000 1.000000 0.000000
vn 0.000000 1.000000 0.000000
vn 0.000000 1.000000 0.000000
vn 0.000000 0.000000 -1.000000
vn 0.000000 0.000000 -1.000000
vn 0.000000 0.000000 -1.000000
vn 0.000000 0.000000 -1.000000
vn 0.000000 -1.000000 0.000000
vn 0.000000 -1.000000 0.000000
vn 0.000000 -1.000000 0.000000
vn 0.000000 -1.000000 0.000000
vn -1.000000 0.000000 0.000000
vn -0.999986 0.005306 0.000000
vn -0.999986 0.005306 0.000000
vn -1.000000 0.000000 0.000000
vn -1.000000 0.000000 0.000000
vn -1.000000 0.000000 0.000000
vn -1.000000 0.000000 0.000000
vn -1.000000 0.000000 0.000000
vn 0.000000 -0.707107 0.707106
vn 0.000000 -0.707107 0.707106
vn 0.000000 -0.707107 0.707106
vn 0.000000 -0.707107 0.707106
vn 0.000000 0.707106 0.707108
vn 0.000000 0.707106 0.707108
vn 0.000000 0.707106 0.707108
vn 0.000000 0.707106 0.707108
vn 0.000000 0.707106 -0.707108
vn 0.000000 0.707106 -0.707108
vn 0.000000 0.707106 -0.707108
vn 0.000000 0.707106 -0.707108
vn 0.000000 -0.707107 -0.707106
vn 0.000000 -0.707107 -0.707106
vn 0.000000 -0.707107 -0.707106
vn 0.000000 -0.707107 -0.707106
vn 0.707108 0.500000 -0.499999
vn 0.707108 0.500000 -0.499999
vn 0.707108 0.500000 -0.499999
vn 0.707108 0.500000 -0.499999
vn 0.707113 0.707101 0.000000
vn 0.707113 0.707101 0.000000
vn 0.707113 0.707101 0.000000
vn 0.707113 0.707101 0.000000
vn 0.707113 0.000000 -0.707101
vn 0.707113 0.000000 -0.707101
vn 0.707113 0.000000 -0.707101
vn 0.707113 0.000000 -0.707101
vn 0.707108 0.500000 0.499999
vn 0.707108 0.500000 0.499999
vn 0.707108 0.500000 0.499999
vn 0.707108 0.500000 0.499999
vn 0.707113 0.000000 0.707101
vn 0.707113 0.000000 0.707101
vn 0.707113 0.000000 0.707101
vn 0.707113 0.000000 0.707101
vn 0.707109 -0.499995 0.500001
vn 0.707109 -0.499995 0.500001
vn 0.707109 -0.499995 0.500001
vn 0.707109 -0.499995 0.500001
vn 0.707113 -0.707100 0.000000
vn 0.707113 -0.707100 0.000000
vn 0.707113 -0.707100 0.000000
vn 0.707113 -0.707100 0.000000
vn 0.707108 -0.499998 -0.500001
vn 0.707108 -0.499998 -0.500001
vn 0.707108 -0.499997 -0.500001
vn 0.707108 -0.499998 -0.500001
vn 1.000000 0.000000 0.000000
vn 0.987847 0.155430 0.000000
vn 1.000000 0.000000 0.000000
vn 1.000000 0.000000 0.000000
vn 0.987847 0.155430 0.000000
vn 1.000000 0.000000 0.000000
vn 1.000000 0.000000 0.000000
vn 1.000000 0.000000 0.000000
vn 1.000000 0.000000 0.000000
vn 1.000000 0.000000 0.000000
vn 1.000000 0.000000 0.000000
vn 1.000000 0.000000 0.000000
vn 1.000000 0.000000 0.000000
vn 1.000000 0.000000 0.000000
vn 1.000000 0.000000 0.000000
vn 1.000000 0.000000 0.000000
vn 0.000000 0.707107 -0.707106
vn 0.000000 0.707107 -0.707106
vn 0.000000 0.707107 -0.707106
vn 0.000000 0.707107 -0.707106
vn 0.000000 1.000000 0.000000
vn 0.000000 1.000000 0.000000
vn 0.000000 1.000000 0.000000
vn 0.000000 1.000000 0.000000
vn 0.000000 0.707107 0.707106
vn 0.000000 0.707107 0.707106
vn 0.000000 0.707107 0.707106
vn 0.000000 0.707107 0.707106
vn 0.000000 0.000000 1.000000
vn 0.000000 0.000000 1.000000
vn 0.000000 0.000000 1.000000
vn 0.000000 0.000000 1.000000
vn 0.000000 -0.707104 0.707109
vn 0.000000 -0.707104 0.707109
vn 0.000000 -0.707104 0.707109
vn 0.000000 -0.707104 0.707109
vn 0.000000 -1.000000 0.000000
vn 0.000000 -1.000000 0.000000
vn 0.000000 -1.000000 0.000000
vn 0.000000 -1.000000 0.000000
vn 0.000000 -0.707104 -0.707109
vn 0.000000 -0.707104 -0.707109
vn 0.000000 -0.707104 -0.707109
vn 0.000000 -0.707104 -0.707109
vn 0.000000 0.000000 -1.000000
vn 0.000000 0.000000 -1.000000
vn 0.000000 0.000000 -1.000000
vn 0.000000 0.000000 -1.000000
vn 1.000000 0.000000 0.000000
vn 1.000000 0.000000 0.000000
vn 1.000000 0.000000 0.000000
vn 1.000000 0.000000 0.000000
vn 1.000000 0.000000 0.000000
vn 1.000000 0.000000 0.000000
vn 1.000000 0.000000 0.000000
vn 1.000000 0.000000 0.000000
vn 0.000000 0.297810 -0.954625
vn 0.000000 0.297810 -0.954625
vn 0.000000 0.297810 -0.954625
vn 0.000000 0.297810 -0.954625
vn 0.944849 0.327508 0.000000
vn 0.944849 0.327508 0.000000
vn 0.000000 0.297810 0.954625
vn 0.000000 0.297810 0.954625
vn 0.000000 0.297810 0.954625
vn 0.000000 0.297810 0.954625
vn -0.944849 0.327508 0.000000
vn -0.944849 0.327508 0.000000
s off
g Body
usemtl lambert2SG
f 2/67/1 4/68/2 8/46/3 6/45/4
f 5/6/5 7/34/6 12/36/7 10/7/8
f 9/47/9 11/48/10 16/73/11 14/74/12
f 41/49/13 42/50/14 43/51/15 44/52/16
s 1
f 14/1/17 13/2/18 1/3/19 2/4/20 6/5/21 5/6/22 10/7/23 9/8/24
s off
f 2/67/25 1/69/26 3/70/27 4/68/28
f 5/6/29 6/45/30 8/46/31 7/34/32
f 9/47/33 10/7/34 12/36/35 11/48/36
f 13/75/37 14/74/38 16/73/39 15/76/40
f 25/11/41 26/12/42 28/13/43 27/14/44
f 26/12/45 25/11/46 29/15/47 30/16/48
f 27/14/49 28/13/50 40/17/51 39/18/52
f 30/16/53 29/15/54 31/22/55 32/23/56
f 32/23/57 31/22/58 33/30/59 34/31/60
f 34/31/61 33/30/62 35/33/63 36/32/64
f 36/32/65 35/33/66 37/25/67 38/24/68
f 38/24/69 37/25/70 39/18/71 40/17/72
s 2
f 4/19/73 3/20/74 25/11/75 27/14/76
f 3/20/74 15/21/77 29/15/78 25/11/75
f 15/21/77 16/29/79 31/22/80 29/15/78
f 16/29/79 11/35/81 33/30/82 31/22/80
f 11/35/81 12/36/83 35/33/84 33/30/82
f 12/36/83 7/34/85 37/25/86 35/33/84
f 7/34/85 8/26/87 39/18/88 37/25/86
f 8/26/87 4/19/73 27/14/76 39/18/88
s off
f 28/57/89 26/53/90 17/38/91 18/58/92
f 26/53/93 30/54/94 19/39/95 17/38/96
f 30/54/97 32/55/98 20/56/99 19/39/100
f 32/55/101 34/65/102 21/66/103 20/56/104
f 34/65/105 36/59/106 22/62/107 21/66/108
f 36/59/109 38/60/110 23/61/111 22/62/112
f 38/60/113 40/63/114 24/64/115 23/61/116
f 40/77/117 28/57/118 18/58/119 24/78/120
f 18/37/121 17/38/122 19/39/123 20/40/124 21/41/125 22/42/126 23/43/127 24/44/128
f 13/75/129 15/76/130 42/50/131 41/49/132
s 2
f 15/21/77 3/20/74 43/27/133 42/28/134
s off
f 3/70/135 1/69/136 44/71/137 43/72/138
s 1
f 1/3/19 13/2/18 41/9/139 44/10/140
g default
v 3.493803 1.048805 3.587337
v 3.493802 0.685915 3.224445
v 3.493803 0.685915 -3.308359
v 3.493803 1.048805 -3.671250
v 3.493803 7.581610 -3.671250
v 3.493803 7.944504 -3.308359
v 3.493802 7.944504 3.224445
v 3.493803 7.581610 3.587337
v 4.101340 0.726212 3.249709
v 4.061040 0.685915 3.266401
v 4.061039 1.048805 3.629292
v 4.101340 1.065497 3.588994
v 4.101340 0.726212 -3.249712
v 4.061039 0.685915 -3.266403
v 4.101340 1.065497 -3.588998
v 4.061039 1.048805 -3.629294
v 4.101340 7.564916 -3.588998
v 4.061039 7.581610 -3.629294
v 4.101340 7.904206 -3.249712
v 4.061039 7.944504 -3.266403
v 4.101340 7.904206 3.249709
v 4.061040 7.944504 3.266401
v 4.101340 7.564916 3.588994
v 4.061039 7.581610 3.629292
v 4.101340 2.196748 1.422989
v 4.101339 2.397017 1.571556
v 4.101340 2.196748 -1.422992
v 4.101340 2.397017 -1.571560
v 4.101340 6.233399 -1.571560
v 4.101340 6.433669 -1.422992
v 4.101340 6.433669 1.422989
v 4.101339 6.233399 1.571556
v 4.290059 2.337978 1.328124
v 4.290059 2.524896 1.466786
v 4.290056 2.337978 -1.328125
v 4.290059 2.524896 -1.466787
v 4.290059 6.105520 -1.466787
v 4.290056 6.292438 -1.328125
v 4.290059 6.292438 1.328124
v 4.290059 6.105520 1.466786
v 3.625439 1.321005 3.576095
v 3.625439 7.309410 3.576095
v 3.929404 1.321005 3.598578
v 3.929404 7.309410 3.598578
v 3.689318 1.399726 3.587633
v 3.689318 7.230689 3.587633
v 3.867609 1.399726 3.600821
v 3.867609 7.230689 3.600821
v 3.659471 1.344876 3.550919
v 3.659471 7.285539 3.550919
v 3.902533 1.344876 3.568898
v 3.902533 7.285539 3.568898
vt 0.379064 0.331477
vt 0.379839 0.033981
vt 0.396406 0.017504
vt 0.693846 0.018310
vt 0.710323 0.034877
vt 0.709533 0.332318
vt 0.692968 0.348797
vt 0.395543 0.348038
vt 0.225048 0.612723
vt 0.213572 0.604628
vt 0.213221 0.436904
vt 0.224743 0.428399
vt 0.450450 0.428370
vt 0.461925 0.436465
vt 0.462276 0.604188
vt 0.450755 0.612693
vt 0.216216 0.626054
vt 0.199246 0.611521
vt 0.198808 0.430042
vt 0.114756 0.269375
vt 0.459282 0.415038
vt 0.476252 0.429571
vt 0.476689 0.611051
vt 0.258320 0.095079
vt 0.349561 0.330602
vt 0.334079 0.346015
vt 0.038151 0.345248
vt 0.022741 0.329764
vt 0.023517 0.033837
vt 0.039000 0.018427
vt 0.334926 0.019211
vt 0.350334 0.034697
vt 0.334876 0.348607
vt 0.352151 0.331417
vt 0.037337 0.347838
vt 0.020149 0.330561
vt 0.020926 0.033022
vt 0.038203 0.015835
vt 0.335741 0.016621
vt 0.352926 0.033900
vt 0.867686 0.387852
vt 0.884748 0.556852
vt 0.869965 0.557248
vt 0.852902 0.388248
vt 0.885801 0.570154
vt 0.871017 0.570550
vt 0.866633 0.374550
vt 0.851850 0.374946
vt 0.890011 0.753291
vt 0.882024 0.922961
vt 0.867240 0.923357
vt 0.875227 0.753687
vt 0.881685 0.936301
vt 0.866901 0.936697
vt 0.890350 0.739951
vt 0.875566 0.740347
vt 0.733102 0.630010
vt 0.727030 0.382789
vt 0.734592 0.382608
vt 0.740664 0.629828
vt 0.731166 0.632406
vt 0.371183 0.317927
vt 0.360137 0.317895
vt 0.360842 0.047463
vt 0.373799 0.046356
vt 0.373089 0.319070
vt 0.358330 0.319030
vt 0.359041 0.046319
vt 0.215871 0.415142
vt 0.459627 0.625950
vt 0.257865 0.269746
vt 0.251579 0.085943
vt 0.121999 0.085601
vt 0.115211 0.094702
vt 0.121496 0.278510
vt 0.251077 0.278846
vt 0.371888 0.047489
vt 0.742715 0.632121
vt 0.736528 0.380212
vt 0.724979 0.380496
vn -1.000000 0.000000 -0.000000
vn -1.000000 0.000000 -0.000000
vn -1.000000 0.000000 -0.000000
vn -1.000000 0.000000 -0.000000
vn -1.000000 0.000000 -0.000000
vn -1.000000 0.000000 -0.000000
vn -1.000000 0.000000 -0.000000
vn -1.000000 0.000000 -0.000000
vn 0.707081 -0.707132 -0.000000
vn 0.707081 -0.707132 -0.000000
vn 0.707081 -0.707132 -0.000000
vn 0.707081 -0.707132 -0.000000
vn 0.707087 -0.500011 0.500017
vn 0.707087 -0.500011 0.500017
vn 0.707087 -0.500011 0.500017
vn 0.707087 -0.500011 0.500017
vn 0.707089 0.000000 0.707125
vn 0.707089 0.000000 0.707125
vn 0.707089 0.000000 0.707125
vn 0.707089 0.000000 0.707125
vn 0.707069 -0.500026 -0.500028
vn 0.707069 -0.500026 -0.500028
vn 0.707069 -0.500026 -0.500028
vn 0.707069 -0.500026 -0.500028
vn 0.707064 0.000000 -0.707149
vn 0.707064 0.000000 -0.707149
vn 0.707065 0.000000 -0.707149
vn 0.707065 0.000000 -0.707149
vn 0.707080 0.500015 -0.500023
vn 0.707080 0.500015 -0.500023
vn 0.707080 0.500015 -0.500023
vn 0.707080 0.500015 -0.500023
vn 0.707085 0.707128 -0.000000
vn 0.707085 0.707128 -0.000000
vn 0.707085 0.707128 -0.000000
vn 0.707085 0.707128 -0.000000
vn 0.707094 0.500003 0.500015
vn 0.707094 0.500003 0.500015
vn 0.707094 0.500003 0.500015
vn 0.707094 0.500003 0.500015
vn 1.000000 -0.000000 -0.000000
vn 1.000000 -0.000000 -0.000000
vn 1.000000 -0.000000 -0.000000
vn 1.000000 -0.000000 -0.000000
vn 1.000000 -0.000000 -0.000000
vn 1.000000 -0.000000 -0.000000
vn 1.000000 -0.000000 -0.000000
vn 1.000000 -0.000000 -0.000000
vn -0.052230 -0.706142 0.706141
vn -0.052230 -0.706142 0.706141
vn -0.052230 -0.706142 0.706141
vn -0.052230 -0.706142 0.706141
vn 0.000000 -1.000000 0.000000
vn 0.000000 -1.000000 0.000000
vn 0.000000 -1.000000 0.000000
vn 0.000000 -1.000000 0.000000
vn 0.052230 -0.706142 -0.706141
vn 0.052230 -0.706142 -0.706141
vn 0.052230 -0.706142 -0.706141
vn 0.052230 -0.706142 -0.706141
vn 0.073764 0.000000 -0.997276
vn 0.073764 0.000000 -0.997276
vn 0.073764 0.000000 -0.997276
vn 0.073764 0.000000 -0.997276
vn 0.052230 0.706139 -0.706144
vn 0.052230 0.706139 -0.706145
vn 0.052230 0.706139 -0.706145
vn 0.052230 0.706139 -0.706145
vn 0.000000 1.000000 0.000000
vn 0.000000 1.000000 0.000000
vn 0.000000 1.000000 0.000000
vn 0.000000 1.000000 0.000000
vn -0.052231 0.706139 0.706144
vn -0.052231 0.706139 0.706144
vn -0.052231 0.706139 0.706144
vn -0.052231 0.706139 0.706144
vn -0.073771 0.000000 0.997275
vn -0.073771 0.000000 0.997275
vn -0.073771 0.000000 0.997275
vn -0.073771 0.000000 0.997275
vn 1.000000 0.000000 -0.000000
vn 1.000000 0.000000 0.000000
vn 1.000000 0.000000 0.000000
vn 1.000000 0.000000 -0.000000
vn 1.000000 -0.000000 0.000000
vn 1.000000 0.000000 0.000000
vn 1.000000 -0.000000 0.000000
vn 1.000000 -0.000000 0.000000
vn 1.000000 0.000000 0.000000
vn 1.000000 0.000000 0.000000
vn 1.000000 0.000000 0.000000
vn 1.000000 -0.000000 0.000000
vn 1.000000 -0.000000 0.000000
vn 1.000000 -0.000000 0.000000
vn 1.000000 -0.000000 -0.000000
vn 1.000000 -0.000000 -0.000000
vn 0.647467 -0.454050 0.612066
vn 0.647467 -0.454050 0.612066
vn 0.647467 -0.454050 0.612066
vn 0.647467 -0.454050 0.612067
vn 0.599162 -0.800628 -0.000000
vn 0.599162 -0.800628 -0.000000
vn 0.599162 -0.800628 -0.000000
vn 0.599162 -0.800628 -0.000000
vn 0.647475 -0.454051 -0.612056
vn 0.647475 -0.454051 -0.612056
vn 0.647475 -0.454051 -0.612056
vn 0.647475 -0.454051 -0.612056
vn 0.485390 0.000000 -0.874298
vn 0.485390 0.000000 -0.874298
vn 0.485390 0.000000 -0.874298
vn 0.485390 0.000000 -0.874298
vn 0.647475 0.454050 -0.612057
vn 0.647475 0.454050 -0.612057
vn 0.647475 0.454050 -0.612057
vn 0.647475 0.454050 -0.612057
vn 0.599164 0.800626 -0.000000
vn 0.599164 0.800626 -0.000000
vn 0.599164 0.800626 -0.000000
vn 0.599164 0.800626 -0.000000
vn 0.647466 0.454050 0.612067
vn 0.647466 0.454049 0.612067
vn 0.647466 0.454050 0.612067
vn 0.647466 0.454049 0.612067
vn 0.485380 0.000000 0.874303
vn 0.485380 0.000000 0.874303
vn 0.485380 0.000000 0.874303
vn 0.485380 0.000000 0.874303
vn 0.043318 -0.020303 0.998855
vn 0.043318 0.020303 0.998855
vn 0.069710 0.007485 0.997539
vn 0.069711 -0.007485 0.997539
vn -0.188673 0.019548 0.981845
vn -0.212715 0.007384 0.977086
vn -0.188673 -0.019548 0.981845
vn -0.212715 -0.007384 0.977086
vn -0.775941 0.000000 0.630805
vn -0.775941 0.000000 0.630805
vn -0.775941 0.000000 0.630805
vn -0.775941 0.000000 0.630805
vn -0.062488 -0.531458 0.844777
vn -0.062488 -0.531458 0.844777
vn -0.062488 -0.531458 0.844777
vn -0.062488 -0.531458 0.844777
vn 0.674699 0.000000 0.738093
vn 0.674699 0.000000 0.738093
vn 0.674699 0.000000 0.738093
vn 0.674699 0.000000 0.738093
vn -0.062488 0.531456 0.844778
vn -0.062488 0.531456 0.844778
vn -0.062488 0.531456 0.844778
vn -0.062488 0.531456 0.844778
vn 0.594731 0.000000 0.803925
vn 0.594731 0.000000 0.803925
vn 0.594731 0.000000 0.803925
vn 0.594731 0.000000 0.803925
vn -0.048235 0.756562 0.652140
vn -0.048235 0.756562 0.652140
vn -0.048235 0.756562 0.652140
vn -0.048235 0.756562 0.652140
vn -0.741323 0.000000 0.671149
vn -0.741323 0.000000 0.671149
vn -0.741323 0.000000 0.671149
vn -0.741323 0.000000 0.671149
vn -0.048235 -0.756565 0.652137
vn -0.048235 -0.756566 0.652137
vn -0.048235 -0.756566 0.652137
vn -0.048235 -0.756565 0.652137
s off
g Door
usemtl lambert2SG
f 45/79/141 52/80/142 51/81/143 50/82/144 49/83/145 48/84/146 47/85/147 46/86/148
f 53/104/149 54/111/150 58/113/151 57/105/152
f 54/111/153 53/104/154 56/103/155 55/112/156
f 55/112/157 56/103/158 67/110/159 68/118/160
f 57/105/161 58/113/162 60/114/163 59/106/164
f 59/106/165 60/114/166 62/115/167 61/107/168
f 61/107/169 62/115/170 64/116/171 63/108/172
f 63/108/173 64/116/174 66/117/175 65/109/176
f 65/109/177 66/117/178 68/118/179 67/110/180
f 78/87/181 77/88/182 79/89/183 80/90/184 81/91/185 82/92/186 83/93/187 84/94/188
f 45/125/189 46/119/190 54/122/191 55/126/192
f 46/119/193 47/120/194 58/121/195 54/122/196
f 47/120/197 48/123/198 60/124/199 58/121/200
f 48/123/201 49/133/202 62/134/203 60/124/204
f 49/133/205 50/127/206 64/130/207 62/134/208
f 50/127/209 51/128/210 66/129/211 64/130/212
f 51/128/213 52/131/214 68/132/215 66/129/216
f 90/135/217 89/136/218 91/137/219 92/138/220
s 1
f 56/103/221 53/104/222 69/154/223 70/149/224
f 53/104/222 57/105/225 71/153/226 69/154/223
f 57/105/225 59/106/227 72/98/228 71/153/226
f 59/106/227 61/107/229 73/152/230 72/98/228
f 61/107/229 63/108/231 74/151/232 73/152/230
f 63/108/231 65/109/233 75/150/234 74/151/232
f 65/109/233 67/110/235 76/102/236 75/150/234
f 67/110/235 56/103/221 70/149/224 76/102/236
s off
f 70/95/237 69/96/238 77/88/239 78/87/240
f 69/96/241 71/97/242 79/89/243 77/88/244
f 71/97/245 72/147/246 80/90/247 79/89/248
f 72/147/249 73/99/250 81/91/251 80/90/252
f 73/99/253 74/100/254 82/92/255 81/91/256
f 74/100/257 75/101/258 83/93/259 82/92/260
f 75/101/261 76/148/262 84/94/263 83/93/264
f 76/148/265 70/95/266 78/87/267 84/94/268
s 2
f 52/80/269 45/79/270 85/144/271 86/143/272
f 45/79/270 55/112/273 87/145/274 85/144/271
f 55/112/273 68/118/275 88/146/276 87/145/274
f 68/118/275 52/80/269 86/143/272 88/146/276
s off
f 94/139/277 93/158/278 89/136/279 90/135/280
f 93/158/281 95/157/282 91/137/283 89/136/284
f 95/157/285 96/156/286 92/138/287 91/137/288
f 96/156/289 94/139/290 90/135/291 92/138/292
f 86/143/293 85/144/294 93/140/295 94/155/296
f 85/144/297 87/145/298 95/141/299 93/140/300
f 87/145/301 88/146/302 96/142/303 95/141/304
f 88/146/305 86/143/306 94/155/307 96/142/308
