# This file uses centimeters as units for non-parametric coordinates.

mtllib Pillar.mtl
g default
v -2.355028 0.013698 2.355028
v 2.355028 0.013698 2.355028
v -2.355028 24.986301 2.355028
v 2.355028 24.986301 2.355028
v -2.355028 24.986301 -2.355028
v 2.355028 24.986301 -2.355028
v -2.355028 0.013698 -2.355028
v 2.355028 0.013698 -2.355028
v -2.355028 19.991781 2.355028
v 2.355028 19.991781 2.355028
v 2.355028 19.991781 -2.355028
v -2.355028 19.991781 -2.355028
v 1.888533 19.591129 -1.888533
v -1.888533 19.591129 -1.888533
v -1.888533 19.591129 1.888533
v 1.888533 19.591129 1.888533
v 2.355028 1.989497 -2.355028
v -2.355028 1.989497 -2.355028
v -2.355028 1.989497 2.355028
v 2.355028 1.989497 2.355028
v 1.888533 2.494368 -1.888533
v -1.888533 2.494368 -1.888533
v -1.888533 2.494368 1.888533
v 1.888533 2.494368 1.888533
vt 0.770301 0.885088
vt 0.889378 0.884841
vt 0.881417 0.994112
vt 0.770010 0.993439
vt 0.555846 0.886346
vt 0.658473 0.886504
vt 0.658485 0.995266
vt 0.555820 0.995249
vt 0.567249 0.500318
vt 0.679170 0.500644
vt 0.648331 0.873114
vt 0.566026 0.872938
vt 0.788553 0.498842
vt 0.870947 0.498713
vt 0.871345 0.871695
vt 0.760215 0.871720
vt 0.557389 0.442216
vt 0.660007 0.442693
vt 0.669086 0.485708
vt 0.557157 0.485283
vt 0.982691 0.321503
vt 0.880995 0.440588
vt 0.889394 0.483557
vt 0.778347 0.483873
vt 0.982661 0.433324
vt 0.880502 0.432577
vt 0.881252 0.218666
vt 0.983408 0.219371
vt 0.992466 0.993453
vt 0.889745 0.993808
vt 0.889492 0.440467
vt 0.992163 0.440623
vt 0.761106 0.500838
vt 0.788957 0.871727
vt 0.649545 0.500653
vt 0.678279 0.871517
vt 0.981875 0.498643
vt 0.992071 0.483683
vt 0.899538 0.498568
vt 0.881092 0.483694
vt 0.981864 0.871288
vt 0.899517 0.871388
vt 0.992056 0.884646
vt 0.881523 0.885123
vt 0.778778 0.885126
vt 0.778696 0.994029
vt 0.668125 0.884829
vt 0.881267 0.330436
vt 0.778247 0.440783
vt 0.771261 0.485950
vt 0.669187 0.442847
vt 0.659782 0.485731
vt 0.667839 0.993168
vt 0.983425 0.331126
vt 0.880523 0.320874
vt 0.771362 0.443090
vn 0.000000 -0.047321 0.998880
vn 0.000000 -0.047321 0.998880
vn 0.000000 0.000000 1.000000
vn 0.000000 0.000000 1.000000
vn 0.000000 1.000000 0.000000
vn 0.000000 1.000000 0.000000
vn 0.000000 1.000000 0.000000
vn 0.000000 1.000000 0.000000
vn 0.000000 0.000000 -1.000000
vn 0.000000 0.000000 -1.000000
vn 0.000000 -0.047321 -0.998880
vn 0.000000 -0.047321 -0.998880
vn 0.000000 -1.000000 0.000000
vn 0.000000 -1.000000 0.000000
vn 0.000000 -1.000000 0.000000
vn 0.000000 -1.000000 0.000000
vn 0.998880 -0.047321 0.000000
vn 0.998880 -0.047321 0.000000
vn 1.000000 0.000000 0.000000
vn 1.000000 0.000000 0.000000
vn -0.998880 -0.047321 0.000000
vn -0.998880 -0.047321 0.000000
vn -1.000000 0.000000 0.000000
vn -1.000000 0.000000 0.000000
vn 0.000000 -0.041731 0.999129
vn 0.000000 -0.041731 0.999129
vn 0.999129 -0.041731 0.000000
vn 0.999129 -0.041731 0.000000
vn 0.000000 -0.041731 -0.999129
vn 0.000000 -0.041731 -0.999129
vn -0.999129 -0.041731 0.000000
vn -0.999129 -0.041731 0.000000
vn 0.000000 0.040408 -0.999183
vn 0.000000 0.040408 -0.999183
vn -0.999183 0.040408 0.000000
vn -0.999183 0.040408 0.000000
vn 0.000000 0.040408 0.999183
vn 0.000000 0.040408 0.999183
vn 0.999183 0.040408 0.000000
vn 0.999183 0.040408 0.000000
vn 0.000000 0.114718 -0.993398
vn 0.000000 0.114718 -0.993398
vn 0.000000 0.000000 -1.000000
vn 0.000000 0.000000 -1.000000
vn -1.000000 0.000000 0.000000
vn -1.000000 0.000000 0.000000
vn -0.993398 0.114718 0.000000
vn -0.993398 0.114718 0.000000
vn 0.000000 0.000000 1.000000
vn 0.000000 0.000000 1.000000
vn 0.000000 0.114718 0.993398
vn 0.000000 0.114718 0.993398
vn 1.000000 0.000000 0.000000
vn 1.000000 0.000000 0.000000
vn 0.993398 0.114718 0.000000
vn 0.993398 0.114718 0.000000
s 1
g Pillar
usemtl lambert2SG
f 9/47/1 10/1/2 4/4/3 3/53/4
s off
f 3/48/5 4/54/6 6/25/7 5/26/8
s 2
f 5/29/9 6/30/10 11/2/11 12/43/12
s off
f 7/27/13 8/28/14 2/21/15 1/55/16
s 3
f 10/45/17 11/44/18 6/3/19 4/46/20
s 4
f 12/5/21 9/6/22 3/7/23 5/8/24
s 1
f 15/36/25 16/16/26 10/1/2 9/47/1
s 3
f 16/34/27 13/15/28 11/44/18 10/45/17
s 2
f 12/43/12 11/2/11 13/42/29 14/41/30
s 4
f 14/12/31 15/11/32 9/6/22 12/5/21
s 2
f 14/41/30 13/42/29 21/39/33 22/37/34
s 4
f 22/9/35 23/35/36 15/11/32 14/12/31
s 1
f 23/10/37 24/33/38 16/16/26 15/36/25
s 3
f 24/13/39 21/14/40 13/15/28 16/34/27
s 2
f 18/38/41 17/23/42 8/31/43 7/32/44
s 4
f 7/17/45 1/18/46 19/52/47 18/20/48
s 1
f 1/51/49 2/56/50 20/50/51 19/19/52
s 3
f 2/49/53 8/22/54 17/40/55 20/24/56
s 2
f 22/37/34 21/39/33 17/23/42 18/38/41
s 4
f 18/20/48 19/52/47 23/35/36 22/9/35
s 1
f 19/19/52 20/50/51 24/33/38 23/10/37
s 3
f 20/24/56 17/40/55 21/14/40 24/13/39
