# This file uses centimeters as units for non-parametric coordinates.

mtllib shipcard.mtl
g default
v -4.832475 0.000118 2.763069
v -4.525502 0.000118 3.070043
v -4.678988 0.000118 3.028916
v -4.791348 0.000118 2.916556
v -4.832475 0.091082 2.763069
v -4.791348 0.091082 2.916556
v -4.678988 0.091082 3.028916
v -4.525502 0.091082 3.070043
v 4.832475 0.000118 2.763069
v 4.791348 0.000118 2.916556
v 4.678988 0.000118 3.028916
v 4.525502 0.000118 3.070043
v 4.832475 0.091082 2.763069
v 4.525502 0.091082 3.070043
v 4.678988 0.091082 3.028916
v 4.791348 0.091082 2.916556
v -4.678988 0.091082 -3.028916
v -4.791348 0.091082 -2.916556
v -4.832475 0.091082 -2.763069
v -4.525502 0.091082 -3.070043
v -4.832475 0.000118 -2.763069
v -4.791348 0.000118 -2.916556
v -4.678988 0.000118 -3.028916
v -4.525502 0.000118 -3.070043
v 4.791348 0.091082 -2.916556
v 4.678988 0.091082 -3.028916
v 4.525502 0.091082 -3.070043
v 4.832475 0.091082 -2.763069
v 4.832475 0.000118 -2.763069
v 4.525502 0.000118 -3.070043
v 4.678988 0.000118 -3.028916
v 4.791348 0.000118 -2.916556
vt 0.444556 0.038535
vt 0.449413 0.038535
vt 0.449331 0.521546
vt 0.444475 0.521545
vt 0.432679 0.521055
vt 0.427821 0.521054
vt 0.427947 0.037805
vt 0.432797 0.037807
vt 0.478336 0.013843
vt 0.483191 0.013843
vt 0.483155 0.309067
vt 0.478291 0.309066
vt 0.462785 0.016502
vt 0.467642 0.016504
vt 0.467566 0.311588
vt 0.462708 0.311587
vt 0.449419 0.013088
vt 0.449417 0.021572
vt 0.444560 0.021570
vt 0.444562 0.013087
vt 0.449415 0.030054
vt 0.444558 0.030053
vt 0.449330 0.530029
vt 0.444473 0.530027
vt 0.449328 0.538509
vt 0.444472 0.538508
vt 0.449326 0.546988
vt 0.444471 0.546988
vt 0.427816 0.546520
vt 0.427818 0.538033
vt 0.432675 0.538034
vt 0.432672 0.546521
vt 0.427819 0.529544
vt 0.432678 0.529546
vt 0.427946 0.029336
vt 0.432803 0.029330
vt 0.427914 0.020847
vt 0.432778 0.020831
vt 0.427886 0.012351
vt 0.432750 0.012335
vt 0.415800 0.542759
vt 0.411071 0.547565
vt 0.404610 0.549323
vt 0.023629 0.549324
vt 0.017168 0.547565
vt 0.012438 0.542760
vt 0.010708 0.536196
vt 0.010707 0.299876
vt 0.012438 0.293312
vt 0.017167 0.288507
vt 0.023628 0.286748
vt 0.404609 0.286748
vt 0.411070 0.288506
vt 0.415799 0.293311
vt 0.417531 0.299875
vt 0.417531 0.536196
vt 0.417665 0.027056
vt 0.417665 0.266081
vt 0.415933 0.272720
vt 0.411204 0.277580
vt 0.404743 0.279359
vt 0.023762 0.279359
vt 0.017302 0.277580
vt 0.012572 0.272720
vt 0.010841 0.266081
vt 0.010841 0.027056
vt 0.012572 0.020417
vt 0.017302 0.015557
vt 0.023762 0.013778
vt 0.404743 0.013778
vt 0.411204 0.015557
vt 0.415933 0.020417
vn -0.004468 0.000000 0.999990
vn -0.004468 0.000000 0.999990
vn 0.004468 0.000000 0.999990
vn 0.004468 0.000000 0.999990
vn -0.004468 0.000000 -0.999990
vn -0.004468 0.000000 -0.999990
vn 0.004468 0.000000 -0.999990
vn 0.004468 0.000000 -0.999990
vn 0.999974 0.000000 0.007241
vn 0.999974 0.000000 0.007241
vn 0.999974 0.000000 -0.007241
vn 0.999974 0.000000 -0.007241
vn -0.999974 0.000000 -0.007241
vn -0.999974 0.000000 -0.007241
vn -0.999974 0.000000 0.007241
vn -0.999974 0.000000 0.007241
vn -0.999974 0.000000 0.007241
vn -0.866026 0.000000 0.500000
vn -0.866026 0.000000 0.500000
vn -0.999974 0.000000 0.007241
vn -0.866026 0.000000 0.500000
vn -0.500001 0.000000 0.866025
vn -0.500001 0.000000 0.866025
vn -0.866026 0.000000 0.500000
vn -0.500001 0.000000 0.866025
vn -0.004468 0.000000 0.999990
vn -0.004468 0.000000 0.999990
vn -0.500001 0.000000 0.866025
vn 0.004468 0.000000 0.999990
vn 0.500001 0.000000 0.866025
vn 0.500001 0.000000 0.866025
vn 0.004468 0.000000 0.999990
vn 0.500001 0.000000 0.866025
vn 0.866026 0.000000 0.500000
vn 0.866026 0.000000 0.500000
vn 0.500001 0.000000 0.866025
vn 0.866026 0.000000 0.500000
vn 0.999974 0.000000 0.007241
vn 0.999974 0.000000 0.007241
vn 0.866026 0.000000 0.500000
vn -0.999974 0.000000 -0.007241
vn -0.866026 0.000000 -0.500000
vn -0.866026 0.000000 -0.500000
vn -0.999974 0.000000 -0.007241
vn -0.866026 0.000000 -0.500000
vn -0.500001 0.000000 -0.866025
vn -0.500001 0.000000 -0.866025
vn -0.866026 0.000000 -0.500000
vn -0.500001 0.000000 -0.866025
vn -0.004468 0.000000 -0.999990
vn -0.004468 0.000000 -0.999990
vn -0.500001 0.000000 -0.866025
vn 0.004468 0.000000 -0.999990
vn 0.500001 0.000000 -0.866025
vn 0.500001 0.000000 -0.866025
vn 0.004468 0.000000 -0.999990
vn 0.500001 0.000000 -0.866025
vn 0.866026 0.000000 -0.500000
vn 0.866026 0.000000 -0.500000
vn 0.500001 0.000000 -0.866025
vn 0.866026 0.000000 -0.500000
vn 0.999974 0.000000 -0.007241
vn 0.999974 0.000000 -0.007241
vn 0.866026 0.000000 -0.500000
vn 0.000000 1.000000 0.000000
vn 0.000000 1.000000 0.000000
vn 0.000000 1.000000 0.000000
vn 0.000000 1.000000 0.000000
vn 0.000000 1.000000 0.000000
vn 0.000000 1.000000 0.000000
vn 0.000000 1.000000 0.000000
vn 0.000000 1.000000 0.000000
vn 0.000000 1.000000 0.000000
vn 0.000000 1.000000 0.000000
vn 0.000000 1.000000 0.000000
vn 0.000000 1.000000 0.000000
vn 0.000000 1.000000 0.000000
vn 0.000000 1.000000 0.000000
vn 0.000000 1.000000 0.000000
vn 0.000000 1.000000 0.000000
vn 0.000000 -1.000000 0.000000
vn 0.000000 -1.000000 0.000000
vn 0.000000 -1.000000 0.000000
vn 0.000000 -1.000000 0.000000
vn 0.000000 -1.000000 0.000000
vn 0.000000 -1.000000 0.000000
vn 0.000000 -1.000000 0.000000
vn 0.000000 -1.000000 0.000000
vn 0.000000 -1.000000 0.000000
vn 0.000000 -1.000000 0.000000
vn 0.000000 -1.000000 0.000000
vn 0.000000 -1.000000 0.000000
vn 0.000000 -1.000000 0.000000
vn 0.000000 -1.000000 0.000000
vn 0.000000 -1.000000 0.000000
vn 0.000000 -1.000000 0.000000
s off
g shipcard
usemtl initialShadingGroup
f 8/1/1 2/2/2 12/3/3 14/4/4
f 24/5/5 20/6/6 27/7/7 30/8/8
f 13/9/9 9/10/10 29/11/11 28/12/12
f 19/13/13 21/14/14 1/15/15 5/16/16
f 1/17/17 4/18/18 6/19/19 5/20/20
f 4/18/21 3/21/22 7/22/23 6/19/24
f 3/21/25 2/2/26 8/1/27 7/22/28
f 12/3/29 11/23/30 15/24/31 14/4/32
f 11/23/33 10/25/34 16/26/35 15/24/36
f 10/25/37 9/27/38 13/28/39 16/26/40
f 19/29/41 18/30/42 22/31/43 21/32/44
f 18/30/45 17/33/46 23/34/47 22/31/48
f 17/33/49 20/6/50 24/5/51 23/34/52
f 27/7/53 26/35/54 31/36/55 30/8/56
f 26/35/57 25/37/58 32/38/59 31/36/60
f 25/37/61 28/39/62 29/40/63 32/38/64
f 25/41/65 26/42/66 27/43/67 20/44/68 17/45/69 18/46/70 19/47/71 5/48/72 6/49/73 7/50/74 8/51/75 14/52/76 15/53/77 16/54/78 13/55/79 28/56/80
f 29/57/81 9/58/82 10/59/83 11/60/84 12/61/85 2/62/86 3/63/87 4/64/88 1/65/89 21/66/90 22/67/91 23/68/92 24/69/93 30/70/94 31/71/95 32/72/96
