# This file uses centimeters as units for non-parametric coordinates.

mtllib wall-1 di.mtl
g default
v 99.989780 -0.000004 99.999760
v -54.443330 66.649561 99.999753
v 29.978664 -0.000001 99.999757
v -99.989403 279.999943 99.999751
v -52.007448 61.747080 99.999754
v -71.912163 275.816623 99.999753
v -54.440393 230.201281 99.999753
v -54.440400 69.895365 99.999753
v -71.912163 231.873447 64.433346
v -71.912163 228.338657 64.433346
v -71.912163 225.051029 64.433346
v -71.912170 64.711345 64.433346
v -71.861328 61.513500 64.433346
v -70.476288 56.612499 64.433347
v -16.666568 0.000001 64.433105
v -18.006289 19.215577 64.433349
v -59.977905 65.000468 64.433347
v -61.236382 235.305331 64.433347
v -59.970696 231.890994 64.433347
v -59.970696 228.603366 64.433347
v -59.970703 68.263713 64.433347
v -57.550934 60.176280 64.433347
v 24.240262 -0.000001 64.433351
v -71.912162 247.539035 64.433346
v -16.666567 16.592866 64.433349
v 29.978665 -0.000001 72.670167
v -54.443329 66.649561 72.670652
v -55.743508 236.843508 72.670652
v -71.912162 255.980747 72.670651
v -52.007447 61.747080 72.670652
v -54.440392 233.561999 72.670652
v -54.440392 230.201281 72.670652
v -54.440399 69.899027 72.670652
v -76.090499 279.999942 -100.000003
v -99.989333 279.999943 -100.000004
v -54.443352 66.649561 -100.000002
v -52.007470 61.747080 -100.000002
v -52.007471 61.747080 -72.670168
v -54.443353 66.649561 -72.670168
v -55.743531 236.843508 -100.000002
v -54.440415 233.561999 -100.000002
v -54.440416 233.561999 -72.670168
v -55.743532 236.843508 -72.670168
v -54.440422 69.895365 -100.000002
v -54.440423 69.898997 -72.670168
v -54.440415 230.201281 -100.000002
v -54.440416 230.201281 -72.670168
v -71.912185 255.977084 -100.000003
v -71.912187 255.980747 -72.670169
v -71.912185 275.816623 -100.000003
v 29.978641 -0.000001 -72.669921
v -71.912188 228.338657 -64.433597
v -71.912188 231.873447 -64.433597
v -71.912195 64.711345 -64.433597
v -71.912188 225.051029 -64.433597
v -71.861384 61.513530 -64.433597
v -70.476344 56.612499 -64.433597
v -18.006344 19.215577 -64.433595
v -59.977961 65.000468 -64.433596
v -57.550989 60.176280 -64.433596
v -61.236437 235.305331 -64.433596
v -59.970751 231.890994 -64.433596
v -59.970758 68.263713 -64.433596
v -59.970751 228.603366 -64.433596
v -71.912187 247.539035 -64.433597
v 24.240237 -0.000001 -64.433593
v -16.666622 16.592866 -64.433594
v -16.666623 0.000001 -64.433594
v 29.978642 -0.000001 -99.999999
v 99.989750 -0.000004 -99.999996
v -1.646884 23.790314 99.999756
v -7.214479 23.143402 64.433349
v -1.646883 23.793640 72.670654
v -1.646907 23.793579 -72.669922
v -7.214504 23.143372 -64.433594
v -1.646906 23.790314 -100.000000
v -76.090477 279.999942 99.999753
v -71.912164 255.977084 99.999753
v -54.440393 233.561999 99.999753
v -55.743509 236.843508 99.999753
vt 0.395287 0.121891
vt 0.306009 0.121879
vt 0.395280 0.193248
vt 0.306002 0.193235
vt 0.061302 0.099275
vt 0.061295 0.218131
vt 0.031342 0.066855
vt 0.009480 0.066855
vt 0.036828 0.066855
vt 0.031342 0.250542
vt 0.009480 0.250543
vt 0.036825 0.250542
vt 0.284972 0.114839
vt 0.280473 0.114839
vt 0.280473 0.090294
vt 0.284972 0.090294
vt 0.441678 0.114839
vt 0.438132 0.114839
vt 0.438132 0.090294
vt 0.441678 0.090294
vt 0.287793 0.114839
vt 0.287793 0.090294
vt 0.434955 0.114839
vt 0.434955 0.090294
vt 0.464218 0.114839
vt 0.464218 0.090294
vt 0.185088 0.090294
vt 0.078933 0.099865
vt 0.075688 0.099862
vt 0.294538 0.238681
vt 0.081950 0.099867
vt 0.284972 0.080448
vt 0.280473 0.080448
vt 0.441678 0.080448
vt 0.438132 0.080448
vt 0.189004 0.080448
vt 0.457386 0.080448
vt 0.229169 0.238681
vt 0.226522 0.238682
vt 0.185088 0.114839
vt 0.291663 0.238681
vt 0.211560 0.238683
vt 0.287085 0.238681
vt 0.226522 0.122850
vt 0.994184 0.506216
vt 0.969569 0.506216
vt 0.969569 0.501716
vt 0.994184 0.501716
vt 0.994184 0.662921
vt 0.969569 0.662921
vt 0.969569 0.659375
vt 0.994184 0.659375
vt 0.994184 0.509037
vt 0.969569 0.509037
vt 0.994184 0.656199
vt 0.969569 0.656199
vt 0.969569 0.685462
vt 0.994184 0.685462
vt 0.078921 0.217563
vt 0.075678 0.217560
vt 0.294537 0.122848
vt 0.081939 0.217565
vt 0.959722 0.506216
vt 0.959722 0.501716
vt 0.959722 0.662921
vt 0.959722 0.659375
vt 0.959722 0.678411
vt 0.959722 0.410263
vt 0.229169 0.122849
vt 0.969569 0.406332
vt 0.994184 0.406332
vt 0.291663 0.122848
vt 0.211560 0.122851
vt 0.287085 0.122849
vt 0.169642 0.246088
vt 0.174791 0.238684
vt 0.106707 0.270652
vt 0.169637 0.270654
vt 0.169642 0.115449
vt 0.174791 0.122852
vt 0.169637 0.090884
vt 0.106707 0.090885
vt 0.853405 0.335404
vt 0.853411 0.332157
vt 0.853410 0.329140
vt 0.853472 0.181908
vt 0.853493 0.179029
vt 0.852325 0.174565
vt 0.805195 0.138828
vt 0.842389 0.182112
vt 0.840261 0.177640
vt 0.843494 0.338595
vt 0.842331 0.335431
vt 0.842373 0.185116
vt 0.842318 0.332392
vt 0.768775 0.119931
vt 0.853269 0.349875
vt 0.804600 0.121120
vt 0.804048 0.136395
vt 0.287793 0.080448
vt 0.434955 0.080448
vt 0.533180 0.341015
vt 0.533178 0.337767
vt 0.533182 0.334748
vt 0.533279 0.187511
vt 0.533268 0.184622
vt 0.534458 0.180153
vt 0.581774 0.144646
vt 0.546514 0.183291
vt 0.544361 0.187743
vt 0.544254 0.341052
vt 0.543088 0.344215
vt 0.544371 0.190742
vt 0.544271 0.338015
vt 0.533302 0.355486
vt 0.620257 0.126235
vt 0.582953 0.142207
vt 0.582558 0.126924
vt 0.959722 0.509037
vt 0.959722 0.656199
vt 0.053550 0.090978
vt 0.053544 0.226427
vt 0.053554 0.066858
vt 0.053547 0.250547
vt 0.221866 0.114840
vt 0.796267 0.142124
vt 0.223913 0.081790
vt 0.221738 0.090938
vt 0.970212 0.442981
vt 0.591897 0.148177
vt 0.961063 0.445166
vt 0.994185 0.443110
vn 0.769301 0.638887 0.000013
vn 0.723671 0.628182 -0.285810
vn 0.925091 0.214440 -0.313404
vn 0.973640 0.228092 -0.000000
vn 0.982192 0.187882 0.000000
vn 0.939411 0.182455 -0.290200
vn 0.825946 0.486657 -0.284566
vn 0.857807 0.513973 0.000000
vn 0.973640 0.228092 -0.000000
vn 0.925091 0.214440 -0.313404
vn 0.956635 -0.000411 -0.291290
vn 1.000000 -0.000451 -0.000000
vn 1.000000 -0.000451 -0.000000
vn 0.956635 -0.000411 -0.291290
vn 0.956620 -0.000000 -0.291340
vn 1.000000 -0.000000 0.000000
vn 0.000000 0.000000 -1.000000
vn 0.000000 0.000000 -1.000000
vn 0.000000 0.000000 -1.000000
vn 0.000000 0.000000 -1.000000
vn 0.000000 0.000000 -1.000000
vn 0.000000 0.000000 -1.000000
vn 0.000000 0.000000 -1.000000
vn 0.000000 0.000000 -1.000000
vn 0.000000 0.000000 -1.000000
vn 0.000000 0.000000 -1.000000
vn 0.000000 0.000000 -1.000000
vn 0.000000 0.000000 -1.000000
vn 0.000000 0.000000 -1.000000
vn 0.000000 0.000000 -1.000000
vn 0.000000 0.000000 -1.000000
vn 0.000000 0.000000 -1.000000
vn 0.000000 0.000000 -1.000000
vn 0.000000 0.000000 -1.000000
vn 0.000000 0.000000 -1.000000
vn 0.000000 0.000000 -1.000000
vn 0.000000 0.000000 -1.000000
vn 0.000000 0.000000 -1.000000
vn 0.000000 0.000000 -1.000000
vn 0.925091 0.214440 -0.313404
vn 0.723671 0.628182 -0.285810
vn 0.658529 0.520486 -0.543538
vn 0.796433 0.191780 -0.573511
vn 0.825946 0.486657 -0.284566
vn 0.939411 0.182455 -0.290200
vn 0.810035 0.140646 -0.569264
vn 0.708416 0.432033 -0.558117
vn 0.830236 -0.000900 -0.557411
vn 0.956635 -0.000411 -0.291290
vn 0.925091 0.214440 -0.313404
vn 0.796433 0.191780 -0.573511
vn 0.830243 -0.000000 -0.557402
vn 0.956620 -0.000000 -0.291340
vn 0.956635 -0.000411 -0.291290
vn 0.830236 -0.000900 -0.557411
vn 0.723671 0.628182 -0.285810
vn 0.585234 0.781864 -0.214918
vn 0.540868 0.724847 -0.426684
vn 0.658529 0.520486 -0.543538
vn 0.810035 0.140646 -0.569264
vn 0.939411 0.182455 -0.290200
vn 0.956620 -0.000000 -0.291340
vn 0.830243 -0.000000 -0.557402
vn 0.742932 0.631827 -0.221012
vn 0.825946 0.486657 -0.284566
vn 0.708416 0.432033 -0.558117
vn 0.624840 0.545269 -0.558799
vn 0.000000 0.000000 -1.000000
vn 0.000000 0.000000 -1.000000
vn 0.000002 0.000005 -1.000000
vn 0.000000 1.000000 0.000000
vn 0.000000 1.000000 0.000000
vn 0.000000 1.000000 0.000000
vn 0.000000 1.000000 0.000000
vn 0.769301 0.638887 0.000013
vn 0.601520 0.798858 0.000097
vn 0.585234 0.781864 -0.214918
vn 0.723671 0.628182 -0.285810
vn 0.763834 0.645413 0.000041
vn 0.857807 0.513973 0.000000
vn 0.825946 0.486657 -0.284566
vn 0.742932 0.631827 -0.221012
vn 0.000000 1.000000 0.000000
vn 0.000000 1.000000 0.000000
vn 0.000000 1.000000 0.000000
vn 1.000000 -0.000000 -0.000000
vn 1.000000 -0.000000 -0.000000
vn 0.972250 0.233943 -0.000000
vn 0.972250 0.233944 -0.000000
vn 0.000000 1.000000 0.000000
vn 0.000000 1.000000 0.000000
vn 0.000000 1.000000 0.000000
vn 0.000000 1.000000 0.000000
vn 0.769301 0.638887 -0.000013
vn 0.973639 0.228092 0.000000
vn 0.925043 0.214499 0.313507
vn 0.723665 0.628179 0.285832
vn 0.982192 0.187882 0.000000
vn 0.857807 0.513973 0.000000
vn 0.825941 0.486654 0.284586
vn 0.939406 0.182454 0.290220
vn 0.973639 0.228092 0.000000
vn 1.000000 -0.000451 0.000000
vn 0.956612 -0.000464 0.291363
vn 0.925043 0.214499 0.313507
vn 1.000000 -0.000000 -0.000000
vn 1.000000 -0.000000 -0.000000
vn 1.000000 -0.000000 0.000000
vn 0.707530 0.706683 -0.000000
vn 0.707530 0.706683 -0.000000
vn 0.707530 0.706683 -0.000000
vn 0.707530 0.706683 -0.000000
vn 1.000000 -0.000000 -0.000000
vn 1.000000 -0.000000 -0.000000
vn 1.000000 -0.000000 -0.000000
vn 1.000000 -0.000000 -0.000000
vn 0.999969 0.007944 -0.000000
vn 1.000000 -0.000000 -0.000000
vn 1.000000 -0.000000 -0.000000
vn 0.999968 0.007949 -0.000000
vn -0.000000 -0.000000 1.000000
vn -0.000000 -0.000000 1.000000
vn -0.000000 -0.000000 1.000000
vn -0.000000 -0.000000 1.000000
vn -0.000000 -0.000000 1.000000
vn -0.000000 -0.000000 1.000000
vn -0.000000 -0.000000 1.000000
vn -0.000000 -0.000000 1.000000
vn -0.000000 -0.000000 1.000000
vn -0.000000 -0.000000 1.000000
vn -0.000000 -0.000000 1.000000
vn -0.000000 -0.000000 1.000000
vn -0.000000 -0.000000 1.000000
vn -0.000000 -0.000000 1.000000
vn -0.000000 -0.000000 1.000000
vn -0.000000 -0.000000 1.000000
vn -0.000000 -0.000000 1.000000
vn -0.000000 -0.000000 1.000000
vn -0.000000 -0.000000 1.000000
vn -0.000000 -0.000000 1.000000
vn -0.000000 -0.000000 1.000000
vn -0.000000 -0.000000 1.000000
vn -0.000000 -0.000000 1.000000
vn -0.000000 -0.000000 1.000000
vn -0.000000 -0.000000 1.000000
vn -0.000000 -0.000000 1.000000
vn -0.000000 -0.000000 1.000000
vn 0.658512 0.520470 0.543574
vn 0.723665 0.628179 0.285832
vn 0.925043 0.214499 0.313507
vn 0.796462 0.191883 0.573436
vn 0.810010 0.140641 0.569301
vn 0.939406 0.182454 0.290220
vn 0.825941 0.486654 0.284586
vn 0.708395 0.432022 0.558152
vn 0.796462 0.191883 0.573436
vn 0.925043 0.214499 0.313507
vn 0.956612 -0.000464 0.291363
vn 0.830311 -0.001012 0.557300
vn 0.830311 -0.001012 0.557300
vn 0.956612 -0.000464 0.291363
vn 0.956613 -0.000000 0.291361
vn 0.830218 -0.000000 0.557439
vn 0.540856 0.724833 0.426722
vn 0.585240 0.781856 0.214931
vn 0.723665 0.628179 0.285832
vn 0.658512 0.520470 0.543574
vn 0.830218 -0.000000 0.557439
vn 0.956613 -0.000000 0.291361
vn 0.939406 0.182454 0.290220
vn 0.810010 0.140641 0.569301
vn 0.708395 0.432022 0.558152
vn 0.825941 0.486654 0.284586
vn 0.742930 0.631825 0.221023
vn 0.624824 0.545253 0.558833
vn 1.000000 -0.000000 -0.000000
vn 1.000000 -0.000000 -0.000000
vn 1.000000 -0.000000 -0.000000
vn 1.000000 -0.000000 -0.000000
vn 0.757109 0.653289 -0.000000
vn 0.757109 0.653289 -0.000000
vn 0.972250 0.233944 -0.000000
vn 0.972250 0.233943 -0.000000
vn 0.585240 0.781856 0.214931
vn 0.601536 0.798846 -0.000077
vn 0.769301 0.638887 -0.000013
vn 0.723665 0.628179 0.285832
vn 0.982192 0.187882 0.000000
vn 0.939406 0.182454 0.290220
vn 0.956613 -0.000000 0.291361
vn 1.000000 -0.000000 0.000000
vn 0.763834 0.645413 -0.000041
vn 0.742930 0.631825 0.221023
vn 0.825941 0.486654 0.284586
vn 0.857807 0.513973 0.000000
vn 0.000000 1.000000 0.000000
vn 0.000000 1.000000 0.000000
vn 0.000000 1.000000 0.000000
vn 0.999969 0.007944 -0.000000
vn 0.999968 0.007949 -0.000000
vn 0.989411 0.145145 -0.000000
vn 0.989411 0.145139 -0.000000
vn 0.580399 0.814332 -0.000000
vn 0.580399 0.814332 -0.000000
vn 0.757109 0.653289 -0.000000
vn 0.757109 0.653289 -0.000000
vn 1.000000 -0.000000 -0.000000
vn 1.000000 -0.000000 -0.000000
vn 1.000000 -0.000000 -0.000000
vn 1.000000 0.000000 -0.000000
vn 0.989411 0.145145 -0.000000
vn 0.962311 0.271952 -0.000000
vn 0.962311 0.271951 -0.000000
vn 0.989411 0.145139 -0.000000
vn 0.000000 0.000000 -1.000000
vn 0.000000 0.000000 -1.000000
vn 0.000000 0.000000 -1.000000
vn 0.000000 0.000000 -1.000000
vn 1.000000 0.000000 -0.000000
vn 1.000000 -0.000000 -0.000000
vn 1.000000 -0.000000 -0.000000
vn 1.000000 0.000000 -0.000000
vn 1.000000 0.000000 -0.000000
vn 1.000000 -0.000000 0.000000
vn 1.000000 0.000000 -0.000000
vn 1.000000 0.000000 -0.000000
vn 1.000000 0.000000 -0.000000
vn 1.000000 -0.000000 -0.000000
vn 1.000000 -0.000000 -0.000000
vn -0.000000 -0.000000 1.000000
vn -0.000000 -0.000000 1.000000
vn -0.000000 -0.000000 1.000000
vn -0.000000 -0.000000 1.000000
vn 0.000000 1.000000 0.000000
vn 0.000000 1.000000 0.000000
vn 0.000000 1.000000 0.000000
vn 0.000000 1.000000 0.000000
vn 0.000000 1.000000 0.000000
vn 0.000000 1.000000 0.000000
vn 0.000000 1.000000 0.000000
vn 0.000000 1.000000 0.000000
vn 0.585234 0.781864 -0.214918
vn 0.593273 0.788557 -0.161880
vn 0.552466 0.736320 -0.390659
vn 0.540868 0.724847 -0.426684
vn 0.601183 0.799111 0.000037
vn 0.593273 0.788557 -0.161880
vn 0.585234 0.781864 -0.214918
vn 0.601520 0.798858 0.000097
vn 0.552462 0.736310 0.390682
vn 0.593255 0.788573 0.161865
vn 0.585240 0.781856 0.214931
vn 0.540856 0.724833 0.426722
vn 0.593255 0.788573 0.161865
vn 0.601150 0.799136 0.000000
vn 0.601536 0.798846 -0.000077
vn 0.585240 0.781856 0.214931
vn 0.000004 0.000009 -1.000000
vn 0.000006 0.000015 -1.000000
vn 0.000002 0.000005 -1.000000
vn 0.000000 0.000000 -1.000000
vn -0.000000 -0.000000 1.000000
vn -0.000000 -0.000000 1.000000
vn -0.000000 -0.000000 1.000000
vn 1.000000 -0.000451 0.000000
vn 0.956612 -0.000464 0.291363
vn 0.982192 0.187882 0.000000
vn 0.939411 0.182455 -0.290200
s off
g A_Wall_Niche_2x3
usemtl A_Wall_Niche_2x2SG
f 5/14/1 30/15/2 27/16/3 2/13/4
f 79/18/5 31/19/6 28/20/7 80/17/8
f 2/13/9 27/16/10 33/22/11 8/21/12
s 1
f 8/21/13 33/22/14 32/24/15 7/23/16
s off
f 9/83/17 24/97/18 18/92/19 10/84/20
f 18/92/21 19/93/22 10/84/23
f 19/93/24 20/95/25 11/85/26 10/84/27
f 20/95/28 21/94/29 12/86/30 11/85/31
f 21/94/32 17/90/33 13/87/34 12/86/35
f 17/90/36 22/91/37 14/88/38 13/87/39
f 27/16/40 30/15/41 22/33/42 17/32/43
f 28/20/44 31/19/45 19/35/46 18/34/47
f 21/100/48 33/22/49 27/16/50 17/32/51
f 20/101/52 32/24/53 33/22/54 21/100/55
f 30/15/56 73/128/57 72/127/58 22/33/59
f 19/35/60 31/19/61 32/24/62 20/101/63
f 29/26/64 28/20/65 18/34/66 24/37/67
f 16/89/68 72/126/69 25/99/70
f 15/42/71 23/76/72 66/80/73 68/73/74
f 5/14/75 71/125/76 73/128/77 30/15/78
f 78/25/79 80/17/80 28/20/81 29/26/82
f 26/75/83 3/78/84 1/77/85
f 15/42/86 68/73/87 67/44/88 25/39/89
f 35/11/90 4/8/91 77/7/92 34/10/93
f 37/48/94 36/45/95 39/46/96 38/47/97
f 41/52/98 40/49/99 43/50/100 42/51/101
f 36/45/102 44/53/103 45/54/104 39/46/105
f 50/12/106 49/122/107 48/124/108
f 77/7/109 6/9/110 50/12/111 34/10/112
f 52/59/113 53/60/114 9/29/115 10/28/116
f 54/3/117 55/4/118 11/2/119 12/1/120
f 61/112/121 65/115/122 53/102/123 52/103/124
f 52/103/125 62/111/126 61/112/127
f 55/104/128 64/114/129 62/111/130 52/103/131
f 54/105/132 63/113/133 64/114/134 55/104/135
f 56/106/136 59/110/137 63/113/138 54/105/139
f 57/107/140 60/109/141 59/110/142 56/106/143
f 60/109/144 57/107/145 58/108/146 75/130/147
f 60/64/148 38/47/149 39/46/150 59/63/151
f 62/66/152 42/51/153 43/50/154 61/65/155
f 59/63/156 39/46/157 45/54/158 63/119/159
f 63/119/160 45/54/161 47/56/162 64/120/163
f 75/131/164 74/129/165 38/47/166 60/64/167
f 64/120/168 47/56/169 42/51/170 62/66/171
f 61/65/172 43/50/173 49/57/174 65/67/175
f 52/59/176 10/28/177 11/31/178 55/62/179
f 58/69/180 16/38/181 25/39/182 67/44/183
f 74/129/184 76/132/185 37/48/186 38/47/187
s 2
f 41/52/188 42/51/189 47/56/190 46/55/191
s off
f 48/58/192 49/57/193 43/50/194 40/49/195
f 70/82/196 69/81/197 51/79/198
f 54/61/199 12/30/200 13/41/201 56/72/202
f 57/74/203 14/43/204 16/38/205 58/69/206
f 9/29/207 53/60/208 65/6/209 24/5/210
f 13/41/211 14/43/212 57/74/213 56/72/214
f 16/89/215 14/88/216 22/91/217 72/126/218
f 24/5/219 65/6/220 49/122/221 29/121/222
f 6/9/223 78/123/224 29/121/225
f 6/9/226 29/121/227 49/122/228 50/12/229
f 67/117/230 68/118/231 66/116/232 75/130/233
f 26/75/234 51/79/235 66/80/236 23/76/237
f 1/77/238 70/82/239 51/79/240 26/75/241
f 73/128/242 26/27/243 23/36/244 72/127/245
f 3/40/246 26/27/247 73/128/248 71/125/249
f 66/68/250 51/70/251 74/129/252 75/131/253
f 51/70/254 69/71/255 76/132/256 74/129/257
f 23/96/258 15/98/259 25/99/260 72/126/261
f 58/108/262 67/117/263 75/130/264
s 2
f 44/53/265 46/55/191 47/56/190 45/54/266
s 1
f 79/18/267 7/23/16 32/24/15 31/19/268
