# This file uses centimeters as units for non-parametric coordinates.

mtllib door4-di.mtl
g default
v 0.575966 0.060695 2.995886
v 0.575967 1.433179 4.309591
v 0.575966 1.433179 -4.309581
v 0.575966 0.060696 -2.997120
v 0.575967 15.315675 -2.982982
v 0.575967 13.977646 -4.309582
v 0.575968 13.978644 4.309590
v 0.575967 15.315674 2.954758
v 0.575966 1.731203 3.571529
v 0.575966 0.802113 2.679829
v 0.575966 0.802113 -2.681055
v 0.575966 1.731136 -3.572687
v 0.575967 13.672285 -3.562363
v 0.575967 14.569475 -2.673450
v 0.575967 14.576733 2.649754
v 0.575967 13.669660 3.563868
v 0.908410 1.819899 3.350820
v 0.908409 1.022762 2.585762
v 0.908409 1.022764 -2.586997
v 0.908409 1.819808 -3.351963
v 0.908410 13.581408 -3.341793
v 0.908411 14.348951 -2.581325
v 0.908411 14.355959 2.558981
v 0.908411 13.577706 3.343274
v 0.908409 9.614909 -3.345692
v 0.908410 7.217443 2.084842
v 0.908410 9.362831 2.084842
v 0.575967 9.312857 -3.566354
v 0.575967 9.060431 0.525989
v 0.575967 7.521986 0.525989
v 0.575966 7.272967 -3.568488
v 0.908409 6.968075 -3.347849
v 0.908409 7.175314 -3.140335
v 0.575967 7.480162 -3.360982
v 0.908409 9.406686 -3.137779
v 0.575967 9.104590 -3.358434
v -0.000000 1.433179 4.309591
v -0.000000 0.060697 -2.997120
v 0.000000 15.315675 -2.982982
v 0.000000 13.979427 4.309590
v -0.575967 0.060695 2.995886
v -0.575968 1.433179 4.309591
v -0.000000 0.060695 2.995886
v -0.575966 1.433179 -4.309581
v -0.575966 0.060697 -2.997120
v -0.000000 1.433179 -4.309581
v -0.575968 13.978644 4.309590
v -0.575966 15.315676 -2.982982
v -0.575966 13.977646 -4.309582
v 0.000000 13.978670 -4.309582
v -0.575967 15.315674 2.954758
v 0.000000 15.315674 2.957094
v -0.908409 1.819809 -3.351963
v -0.908409 6.968075 -3.347849
v -0.908409 7.175314 -3.140335
v -0.908410 7.217443 2.084842
v -0.908410 1.819899 3.350820
v -0.575967 0.802113 2.679829
v -0.575967 1.731203 3.571529
v -0.575966 0.802113 -2.681055
v -0.575966 1.731136 -3.572687
v -0.575966 7.272967 -3.568488
v -0.575966 14.569475 -2.673450
v -0.575966 13.672285 -3.562363
v -0.575967 14.576733 2.649754
v -0.575967 13.669660 3.563868
v -0.908409 1.022764 -2.586997
v -0.908409 1.022762 2.585762
v -0.908410 14.355959 2.558981
v -0.908410 14.348951 -2.581325
v -0.575966 9.312857 -3.566354
v -0.908409 13.581408 -3.341793
v -0.908409 9.614909 -3.345692
v -0.575966 7.480162 -3.360982
v -0.575966 9.104590 -3.358434
v -0.575966 9.060431 0.525989
v -0.575967 7.521987 0.525989
v -0.908410 9.362831 2.084842
v -0.908409 9.406686 -3.137779
v -0.908410 13.577706 3.343274
vt 0.271173 0.278219
vt 0.243194 0.250462
vt 0.242820 0.561690
vt 0.270944 0.534599
vt 0.120537 0.250459
vt 0.121298 0.561661
vt 0.249616 0.287038
vt 0.092694 0.278219
vt 0.249512 0.390914
vt 0.245942 0.394763
vt 0.139621 0.396023
vt 0.113762 0.287009
vt 0.126651 0.265193
vt 0.107143 0.284187
vt 0.092676 0.534598
vt 0.237006 0.265173
vt 0.256510 0.284082
vt 0.256395 0.397599
vt 0.236785 0.546878
vt 0.256217 0.528593
vt 0.127219 0.546971
vt 0.107257 0.528413
vt 0.234125 0.272138
vt 0.129422 0.272154
vt 0.129935 0.539979
vt 0.233995 0.539890
vt 0.256248 0.439142
vt 0.249415 0.525578
vt 0.249387 0.445776
vt 0.251619 0.402361
vt 0.251535 0.434340
vt 0.171994 0.433567
vt 0.171999 0.403076
vt 0.139635 0.440575
vt 0.245855 0.441892
vt 0.113986 0.525511
vt 0.112044 0.242350
vt 0.080947 0.278555
vt 0.279197 0.269644
vt 0.242944 0.238722
vt 0.251190 0.569926
vt 0.278851 0.543281
vt 0.282794 0.534273
vt 0.080946 0.534277
vt 0.084830 0.543334
vt 0.112999 0.569968
vt 0.121496 0.573413
vt 0.120537 0.250459
vt 0.092694 0.278219
vt 0.084610 0.269702
vt 0.271173 0.278219
vt 0.243194 0.250462
vt 0.251705 0.242371
vt 0.092676 0.534598
vt 0.080946 0.534277
vt 0.080947 0.278555
vt 0.120787 0.238722
vt 0.242820 0.561690
vt 0.270944 0.534599
vt 0.278851 0.543281
vt 0.251190 0.569926
vt 0.121298 0.561661
vt 0.112999 0.569968
vt 0.084830 0.543334
vt 0.242575 0.573414
vt 0.282801 0.278566
vt 0.249616 0.287038
vt 0.249512 0.390914
vt 0.245942 0.394763
vt 0.139621 0.396023
vt 0.113762 0.287009
vt 0.126651 0.265193
vt 0.107143 0.284187
vt 0.237006 0.265173
vt 0.256510 0.284082
vt 0.256395 0.397599
vt 0.236785 0.546878
vt 0.256217 0.528593
vt 0.127219 0.546971
vt 0.107257 0.528413
vt 0.234125 0.272138
vt 0.129422 0.272154
vt 0.129935 0.539979
vt 0.233995 0.539890
vt 0.256248 0.439142
vt 0.249415 0.525578
vt 0.249387 0.445776
vt 0.251619 0.402361
vt 0.251535 0.434340
vt 0.171994 0.433567
vt 0.171999 0.403076
vt 0.139635 0.440575
vt 0.245855 0.441892
vt 0.113986 0.525511
vn -0.000000 -0.691468 0.722407
vn -0.000000 -0.691468 0.722407
vn -0.000000 -0.691468 0.722407
vn -0.000000 -0.691468 0.722407
vn 0.000000 -0.691127 -0.722733
vn 0.000000 -0.691127 -0.722733
vn 0.000000 -0.691127 -0.722733
vn 0.000000 -0.691127 -0.722733
vn -0.000000 0.000000 1.000000
vn -0.000000 0.000000 1.000000
vn -0.000000 0.000000 1.000000
vn -0.000000 0.000000 1.000000
vn -0.000000 -1.000000 -0.000000
vn -0.000000 -1.000000 -0.000000
vn -0.000000 -1.000000 -0.000000
vn -0.000000 -1.000000 -0.000000
vn 0.001017 0.704288 -0.709914
vn 0.000000 0.704339 -0.709864
vn 0.000000 0.704119 -0.710082
vn 0.000001 0.704067 -0.710133
vn 0.002497 0.711440 0.702743
vn -0.000000 0.711367 0.702821
vn -0.000000 0.711693 0.702491
vn 0.000967 0.711767 0.702415
vn 1.000000 0.000000 -0.000000
vn 1.000000 0.000000 -0.000000
vn 1.000000 -0.000000 -0.000000
vn 1.000000 -0.000000 -0.000000
vn 1.000000 0.000000 -0.000000
vn 1.000000 -0.000000 -0.000000
vn 1.000000 -0.000000 -0.000000
vn 1.000000 0.000000 -0.000001
vn 1.000000 -0.000000 -0.000000
vn 1.000000 -0.000000 -0.000000
vn 1.000000 0.000000 -0.000001
vn 1.000000 -0.000000 0.000000
vn 1.000000 -0.000000 0.000000
vn 1.000000 -0.000000 -0.000000
vn 1.000000 -0.000000 -0.000000
vn 1.000000 -0.000000 0.000000
vn 1.000000 -0.000000 0.000000
vn 1.000000 -0.000000 0.000000
vn 1.000000 -0.000000 0.000000
vn 1.000000 -0.000000 0.000000
vn 1.000000 -0.000000 0.000000
vn 1.000000 -0.000000 0.000000
vn 1.000000 -0.000000 0.000000
vn 1.000000 -0.000000 0.000000
vn 1.000000 -0.000000 0.000000
vn 1.000000 -0.000000 0.000000
vn 1.000000 -0.000000 0.000000
vn 1.000000 -0.000000 -0.000000
vn 1.000000 -0.000000 0.000000
vn 1.000000 -0.000000 0.000000
vn 1.000000 -0.000000 0.000000
vn 1.000000 -0.000000 -0.000000
vn 1.000000 -0.000000 -0.000001
vn 1.000000 -0.000000 -0.000001
vn 1.000000 -0.000000 0.000000
vn 1.000000 -0.000000 -0.000001
vn 1.000000 0.000000 -0.000001
vn 1.000000 0.000000 -0.000001
vn 1.000000 -0.000000 -0.000001
vn 0.553003 -0.833179 -0.000000
vn 0.553003 -0.833179 -0.000000
vn 0.553000 -0.833181 -0.000000
vn 0.553000 -0.833181 0.000000
vn 0.552998 -0.576928 -0.601122
vn 0.552997 -0.576928 -0.601123
vn 0.552997 -0.576928 -0.601122
vn 0.552999 -0.576928 -0.601121
vn 0.553028 0.000664 -0.833162
vn 0.553385 0.000631 -0.832925
vn 0.553372 0.000632 -0.832934
vn 0.553007 0.000666 -0.833176
vn 0.553000 0.833180 -0.001136
vn 0.553000 0.833180 -0.001136
vn 0.553000 0.833180 -0.001136
vn 0.553000 0.833181 -0.001136
vn 0.552557 0.000814 -0.833475
vn 0.553008 0.000763 -0.833176
vn 0.552982 0.000766 -0.833193
vn 0.552506 0.000819 -0.833508
vn 1.000000 -0.000000 0.000000
vn 1.000000 -0.000000 0.000000
vn 1.000000 -0.000000 0.000000
vn 1.000000 -0.000000 0.000000
vn 0.688219 -0.725463 -0.007615
vn 0.693607 -0.720307 -0.008189
vn 0.676196 -0.736694 -0.006348
vn 0.674758 -0.738013 -0.006197
vn 1.000000 -0.000000 0.000000
vn 1.000000 -0.000000 0.000000
vn 1.000000 -0.000000 0.000000
vn 1.000000 -0.000000 0.000000
vn 0.978007 -0.000000 -0.208571
vn 0.978007 -0.000000 -0.208571
vn 0.978007 -0.000000 -0.208571
vn 0.978007 -0.000000 -0.208571
vn 0.553003 0.591420 0.586865
vn 0.553002 0.591420 0.586865
vn 0.553002 0.591420 0.586865
vn 0.553003 0.591420 0.586864
vn 0.553004 0.586410 -0.591870
vn 0.553000 0.586413 -0.591871
vn 0.553001 0.586412 -0.591870
vn 0.553005 0.586409 -0.591870
vn 0.553006 -0.576926 0.601117
vn 0.553003 -0.576927 0.601117
vn 0.553004 -0.576927 0.601117
vn 0.553006 -0.576925 0.601117
vn 1.000000 -0.000000 -0.000000
vn 1.000000 -0.000000 -0.000000
vn 1.000000 -0.000001 -0.000000
vn 1.000000 -0.000000 0.000000
vn 0.679395 0.733731 -0.007775
vn 0.678679 0.734392 -0.007902
vn 0.689721 0.724052 -0.005923
vn 0.690213 0.723583 -0.005834
vn 0.745312 0.471779 -0.471099
vn 0.745306 0.471797 -0.471091
vn 0.745318 0.471761 -0.471108
vn 0.745324 0.471743 -0.471117
vn 0.743479 -0.472504 -0.473264
vn 0.743467 -0.472542 -0.473246
vn 0.743473 -0.472523 -0.473255
vn 0.743485 -0.472486 -0.473273
vn 1.000000 -0.000000 -0.000000
vn 1.000000 -0.000000 -0.000000
vn 1.000000 -0.000000 -0.000000
vn 1.000000 -0.000001 0.000000
vn 0.553003 0.000535 0.833179
vn 0.553003 0.000535 0.833179
vn 0.553004 0.000535 0.833178
vn 0.553004 0.000535 0.833178
vn 1.000000 -0.000000 -0.000000
vn 1.000000 -0.000000 -0.000000
vn 1.000000 -0.000000 -0.000000
vn 1.000000 -0.000000 -0.000000
vn 1.000000 -0.000000 -0.000000
vn 1.000000 -0.000000 -0.000000
vn 1.000000 -0.000000 -0.000000
vn 1.000000 -0.000000 -0.000000
vn 1.000000 -0.000000 -0.000000
vn 1.000000 -0.000000 -0.000000
vn 1.000000 -0.000000 -0.000000
vn 1.000000 -0.000000 0.000000
vn 1.000000 -0.000000 0.000000
vn 1.000000 -0.000000 0.000000
vn 1.000000 -0.000000 0.000000
vn -0.000000 -0.691468 0.722407
vn -0.000000 -0.691468 0.722407
vn 0.000000 -0.691127 -0.722733
vn 0.000000 -0.691127 -0.722733
vn -0.000000 0.000000 1.000000
vn -0.000000 0.000000 1.000000
vn -0.000000 0.000000 1.000000
vn -0.000000 0.000000 1.000000
vn -0.000000 -1.000000 -0.000000
vn -0.000000 -1.000000 -0.000000
vn -0.001016 0.704288 -0.709914
vn 0.000000 0.704067 -0.710133
vn 0.000000 0.704119 -0.710082
vn 0.000000 0.704339 -0.709864
vn -0.002497 0.711440 0.702742
vn -0.000968 0.711767 0.702415
vn -0.000000 0.711693 0.702491
vn -0.000000 0.711367 0.702821
vn 0.000000 1.000000 0.000000
vn 0.000000 1.000000 0.000000
vn -0.000000 1.000000 0.000000
vn 0.000000 1.000000 0.000000
vn 0.000000 -0.000000 -1.000000
vn 0.000000 -0.000000 -1.000000
vn 0.000000 -0.000000 -1.000000
vn 0.000000 -0.000000 -1.000000
vn -1.000000 -0.000000 -0.000000
vn -1.000000 -0.000000 -0.000000
vn -1.000000 0.000000 -0.000000
vn -1.000000 0.000000 -0.000000
vn -1.000000 0.000000 -0.000000
vn -1.000000 0.000000 -0.000000
vn -1.000000 0.000000 -0.000000
vn -1.000000 0.000000 -0.000001
vn -1.000000 0.000000 -0.000001
vn -1.000000 0.000000 -0.000000
vn -1.000000 -0.000000 -0.000000
vn -1.000000 0.000000 -0.000000
vn -1.000000 -0.000000 -0.000000
vn -1.000000 0.000000 -0.000000
vn -1.000000 0.000000 -0.000000
vn -1.000000 0.000000 -0.000000
vn -1.000000 0.000000 -0.000000
vn -1.000000 0.000000 -0.000000
vn -1.000000 0.000000 -0.000000
vn -1.000000 0.000000 -0.000000
vn -1.000000 0.000000 -0.000000
vn -1.000000 0.000000 -0.000000
vn -1.000000 0.000000 -0.000000
vn -1.000000 0.000000 -0.000000
vn -1.000000 -0.000000 -0.000000
vn -1.000000 0.000000 -0.000000
vn -1.000000 0.000000 -0.000000
vn -1.000000 -0.000000 -0.000000
vn -1.000000 0.000000 -0.000000
vn -1.000000 0.000000 -0.000000
vn -1.000000 0.000000 -0.000000
vn -1.000000 -0.000000 -0.000000
vn -1.000000 0.000000 -0.000000
vn -1.000000 -0.000000 -0.000001
vn -1.000000 -0.000000 -0.000001
vn -1.000000 -0.000000 -0.000001
vn -1.000000 -0.000000 -0.000001
vn -1.000000 0.000000 -0.000001
vn -1.000000 0.000000 -0.000001
vn -0.553003 -0.833179 -0.000000
vn -0.553000 -0.833181 -0.000000
vn -0.553000 -0.833181 -0.000000
vn -0.553003 -0.833179 -0.000000
vn -0.552998 -0.576928 -0.601122
vn -0.552999 -0.576928 -0.601121
vn -0.552997 -0.576928 -0.601122
vn -0.552997 -0.576928 -0.601123
vn -0.553028 0.000664 -0.833162
vn -0.553007 0.000666 -0.833177
vn -0.553372 0.000632 -0.832934
vn -0.553385 0.000631 -0.832925
vn -0.553000 0.833181 -0.001136
vn -0.553000 0.833181 -0.001136
vn -0.553000 0.833180 -0.001136
vn -0.553000 0.833180 -0.001136
vn -0.552557 0.000814 -0.833475
vn -0.552506 0.000819 -0.833508
vn -0.552981 0.000766 -0.833193
vn -0.553008 0.000763 -0.833176
vn -1.000000 -0.000000 -0.000000
vn -1.000000 -0.000000 -0.000000
vn -1.000000 0.000000 -0.000000
vn -1.000000 0.000000 -0.000000
vn -0.688219 -0.725463 -0.007615
vn -0.674759 -0.738012 -0.006197
vn -0.676196 -0.736694 -0.006348
vn -0.693607 -0.720307 -0.008189
vn -1.000000 -0.000000 -0.000000
vn -1.000000 0.000000 -0.000000
vn -1.000000 -0.000000 -0.000000
vn -1.000000 -0.000000 -0.000000
vn -0.978007 0.000000 -0.208572
vn -0.978007 -0.000000 -0.208571
vn -0.978007 0.000000 -0.208571
vn -0.978007 0.000000 -0.208572
vn -0.553002 0.591420 0.586865
vn -0.553002 0.591421 0.586865
vn -0.553002 0.591420 0.586865
vn -0.553002 0.591420 0.586865
vn -0.553004 0.586410 -0.591869
vn -0.553005 0.586409 -0.591869
vn -0.553001 0.586413 -0.591870
vn -0.553000 0.586414 -0.591870
vn -0.553006 -0.576925 0.601117
vn -0.553006 -0.576925 0.601117
vn -0.553004 -0.576927 0.601117
vn -0.553004 -0.576927 0.601117
vn -1.000000 -0.000000 -0.000000
vn -1.000000 0.000000 -0.000000
vn -1.000000 -0.000001 -0.000000
vn -1.000000 -0.000000 -0.000000
vn -0.679395 0.733731 -0.007775
vn -0.690213 0.723583 -0.005834
vn -0.689720 0.724052 -0.005923
vn -0.678679 0.734392 -0.007902
vn -0.745312 0.471779 -0.471099
vn -0.745324 0.471743 -0.471117
vn -0.745318 0.471761 -0.471108
vn -0.745306 0.471797 -0.471091
vn -0.743479 -0.472504 -0.473264
vn -0.743485 -0.472486 -0.473273
vn -0.743473 -0.472523 -0.473255
vn -0.743467 -0.472542 -0.473246
vn -1.000000 -0.000000 -0.000000
vn -1.000000 -0.000001 -0.000000
vn -1.000000 -0.000000 -0.000000
vn -1.000000 -0.000000 -0.000000
vn -0.553003 0.000535 0.833179
vn -0.553005 0.000535 0.833178
vn -0.553005 0.000535 0.833178
vn -0.553003 0.000535 0.833179
vn -1.000000 0.000000 -0.000000
vn -1.000000 -0.000000 -0.000000
vn -1.000000 -0.000000 -0.000000
vn -1.000000 -0.000000 -0.000000
vn -1.000000 -0.000000 -0.000000
vn -1.000000 0.000000 -0.000000
vn -1.000000 -0.000000 -0.000000
vn -1.000000 0.000000 -0.000000
vn -1.000000 -0.000000 -0.000000
vn -1.000000 -0.000000 -0.000000
vn -1.000000 0.000000 -0.000000
vn -1.000000 -0.000000 -0.000000
vn -1.000000 -0.000000 -0.000000
vn -1.000000 0.000000 -0.000000
vn -1.000000 0.000000 -0.000000
vn 0.000001 1.000000 0.000000
vn -0.000001 1.000000 0.000000
vn 0.000000 -0.000000 -1.000000
vn 0.000000 -0.000000 -1.000000
s 1
g Door_5
usemtl Door_4SG
f 2/8/1 37/50/2 43/37/3 1/5/4
s 2
f 4/2/5 38/53/6 46/39/7 3/1/8
s off
f 7/15/9 40/44/10 37/38/11 2/8/12
s 3
f 1/5/13 43/57/14 38/40/15 4/2/16
s off
f 6/4/17 50/42/18 39/41/19 5/3/20
f 8/6/21 52/46/22 40/45/23 7/15/24
f 32/9/25 33/10/26 26/11/27
f 20/7/28 32/9/29 26/11/30 17/12/31
f 2/8/32 1/5/33 10/13/34 9/14/35
f 4/2/36 11/16/37 10/13/38 1/5/39
f 3/1/40 12/17/41 11/16/42 4/2/43
f 31/18/44 12/17/45 3/1/46 6/4/47
f 6/4/48 5/3/49 14/19/50 13/20/51
f 8/6/52 15/21/53 14/19/54 5/3/55
f 8/6/56 7/15/57 16/22/58 15/21/59
f 7/15/60 2/8/61 9/14/62 16/22/63
f 11/16/64 19/23/65 18/24/66 10/13/67
f 11/16/68 12/17/69 20/7/70 19/23/71
f 12/17/72 31/18/73 32/9/74 20/7/75
f 14/19/76 15/21/77 23/25/78 22/26/79
f 28/27/80 13/20/81 21/28/82 25/29/83
f 36/31/84 29/32/85 30/33/86 34/30/87
f 27/34/88 29/32/89 36/31/90 35/35/91
f 28/27/92 36/31/93 34/30/94 31/18/95
f 30/33/96 29/32/97 27/34/98 26/11/99
f 24/36/100 23/25/101 15/21/102 16/22/103
f 22/26/104 21/28/105 13/20/106 14/19/107
f 18/24/108 17/12/109 9/14/110 10/13/111
f 20/7/112 17/12/113 18/24/114 19/23/115
f 33/10/116 34/30/117 30/33/118 26/11/119
f 31/18/120 34/30/121 33/10/122 32/9/123
f 28/27/124 25/29/125 35/35/126 36/31/127
f 23/25/128 24/36/129 21/28/130 22/26/131
f 9/14/132 17/12/133 24/36/134 16/22/135
f 21/28/136 24/36/137 27/34/138 25/29/139
f 35/35/140 25/29/141 27/34/142
f 26/11/143 27/34/144 24/36/145 17/12/146
f 6/4/147 13/20/148 28/27/149 31/18/150
s 1
f 42/49/151 41/48/152 43/37/3 37/50/2
s 2
f 45/52/153 44/51/154 46/39/7 38/53/6
s off
f 47/54/155 42/49/156 37/56/157 40/55/158
s 3
f 41/48/159 45/52/160 38/40/15 43/57/14
s off
f 49/59/161 48/58/162 39/61/163 50/60/164
f 51/62/165 47/54/166 40/64/167 52/63/168
s 4
f 48/58/169 51/62/170 52/47/171 39/65/172
s 5
f 44/51/173 49/59/174 50/43/175 46/66/176
s off
f 53/67/177 57/71/178 56/70/179 54/68/180
f 56/70/181 55/69/182 54/68/183
f 42/49/184 59/73/185 58/72/186 41/48/187
f 45/52/188 41/48/189 58/72/190 60/74/191
f 44/51/192 45/52/193 60/74/194 61/75/195
f 44/51/196 61/75/197 62/76/198 49/59/199
f 49/59/200 64/78/201 63/77/202 48/58/203
f 51/62/204 48/58/205 63/77/206 65/79/207
f 51/62/208 65/79/209 66/80/210 47/54/211
f 47/54/212 66/80/213 59/73/214 42/49/215
f 60/74/216 58/72/217 68/82/218 67/81/219
f 60/74/220 67/81/221 53/67/222 61/75/223
f 61/75/224 53/67/225 54/68/226 62/76/227
f 63/77/228 70/84/229 69/83/230 65/79/231
f 71/85/232 73/87/233 72/86/234 64/78/235
f 75/89/236 74/88/237 77/91/238 76/90/239
f 78/92/240 79/93/241 75/89/242 76/90/243
f 71/85/244 62/76/245 74/88/246 75/89/247
f 77/91/248 56/70/249 78/92/250 76/90/251
f 80/94/252 66/80/253 65/79/254 69/83/255
f 70/84/256 63/77/257 64/78/258 72/86/259
f 68/82/260 58/72/261 59/73/262 57/71/263
f 53/67/264 67/81/265 68/82/266 57/71/267
f 55/69/268 56/70/269 77/91/270 74/88/271
f 62/76/272 54/68/273 55/69/274 74/88/275
f 71/85/276 75/89/277 79/93/278 73/87/279
f 69/83/280 70/84/281 72/86/282 80/94/283
f 59/73/284 66/80/285 80/94/286 57/71/287
f 78/92/288 80/94/289 72/86/290 73/87/291
f 79/93/292 78/92/293 73/87/294
f 56/70/295 57/71/296 80/94/297 78/92/298
f 71/85/299 64/78/300 49/59/301 62/76/302
s 4
f 5/3/303 39/65/172 52/47/171 8/6/304
s 5
f 3/1/305 46/66/176 50/43/175 6/4/306
